<svg width="18" height="21" viewBox="0 0 18 21" fill="none" xmlns="http://www.w3.org/2000/svg">
<path d="M9.14099 0C12.499 0 14.559 0.263003 15.823 1.647C17.106 3.052 17.357 5.473 17.357 9.179C17.357 9.91233 17.357 10.6 17.357 11.242C17.367 17.1 17.371 19.073 16.439 20.007C16.2714 20.1713 16.0721 20.2998 15.8532 20.3845C15.6344 20.4693 15.4005 20.5086 15.166 20.5C14.119 20.5 13.023 19.563 11.866 18.572C10.95 17.79 9.81098 16.816 9.14297 16.816C8.47497 16.816 7.33598 17.79 6.41998 18.572C5.25898 19.564 4.16299 20.5 3.11999 20.5C2.88545 20.5086 2.6516 20.4693 2.43274 20.3845C2.21388 20.2998 2.01457 20.1713 1.84698 20.007C0.914985 19.073 0.918985 17.1 0.928985 11.243C0.928985 10.601 0.928985 9.913 0.928985 9.179C0.928985 5.473 1.17998 3.053 2.46298 1.647C3.72298 0.263003 5.78299 0 9.14099 0ZM15.168 19C15.327 19 15.361 18.966 15.38 18.947C15.514 18.812 15.693 18.369 15.78 17.022C15.865 15.738 15.862 13.853 15.857 11.245C15.857 10.6023 15.857 9.91367 15.857 9.179C15.857 5.926 15.666 3.7 14.715 2.659C13.826 1.685 12.07 1.5 9.14099 1.5C6.21199 1.5 4.45599 1.685 3.56699 2.659C2.61599 3.701 2.42499 5.926 2.42499 9.179C2.42499 9.91233 2.42499 10.601 2.42499 11.245C2.42499 13.853 2.41698 15.738 2.50198 17.022C2.59098 18.37 2.76998 18.813 2.90198 18.947C2.91998 18.965 2.95498 19 3.11398 19C3.60798 19 4.669 18.093 5.444 17.432C6.661 16.392 7.91998 15.316 9.14398 15.316C10.368 15.316 11.624 16.391 12.844 17.432C13.613 18.093 14.671 19 15.171 19H15.168Z" fill="white"/>
</svg>
