<svg width="16" height="21" viewBox="0 0 16 21" fill="none" xmlns="http://www.w3.org/2000/svg">
<path d="M7.59497 20.7939C5.8889 20.8591 4.18343 20.6512 2.54303 20.1779C0.44303 19.4529 0 18.1409 0 17.1689C0.0572331 16.4041 0.303695 15.6656 0.717224 15.0197C1.13075 14.3739 1.69839 13.8409 2.36902 13.4689C3.94032 12.508 5.74598 11.9985 7.58783 11.9963C9.42968 11.9942 11.2365 12.4996 12.81 13.4569C13.4827 13.8257 14.0526 14.3567 14.468 15.0016C14.8835 15.6465 15.1313 16.3849 15.189 17.1499C15.189 18.1229 14.75 19.4359 12.656 20.1679C11.0139 20.6488 9.30472 20.8602 7.59497 20.7939ZM7.59497 13.4939C6.04176 13.4784 5.32107 14.183 4 15C3.54046 15.2401 4.29479 16.0735 4 16.5C3.70521 16.9265 1 18 1.50299 17.1689C1.50299 18.5789 3.456 12.5 7.5 12.5C11.544 12.5 14 17.424 14 16C14.5 16.5 12.7963 16.9246 12.5 16.5C12.2037 16.0754 11.4605 15.7367 11 15.5C9.67798 14.6887 9.14599 13.4785 7.59497 13.4939Z" fill="white"/>
<path d="M7.58698 10.306H7.55604C6.19072 10.3019 4.88281 9.75611 3.91956 8.78851C2.95632 7.82091 2.41647 6.51058 2.41852 5.14526C2.42058 3.77995 2.9644 2.47126 3.93055 1.50656C4.8967 0.541862 6.20616 0 7.57148 0C8.9368 0 10.2463 0.541862 11.2125 1.50656C12.1786 2.47126 12.7224 3.77995 12.7245 5.14526C12.7265 6.51058 12.1867 7.82091 11.2235 8.78851C10.2602 9.75611 8.95229 10.3019 7.58698 10.306ZM4.00006 7C3.52244 6.99816 3.61762 4.45888 3.17565 4.63995C2.73369 4.82103 5.83909 3.66357 5.50006 4C5.16103 4.33643 7.26073 4.1994 7.07625 4.63995C6.89178 5.08051 3.93782 4.67738 3.93598 5.155C3.93414 5.63262 4.02645 6.10592 4.20753 6.54788C4.3886 6.98985 7.66363 2.16097 8.00006 2.5C8.33649 2.83903 8.0595 4.31553 8.50006 4.5C8.94062 4.68447 8.02244 7.49816 8.50006 7.5V8C8.00006 8 6.31799 7.68207 7.00006 7C7.68213 6.31793 7.50006 6.46459 7.50006 5.5C7.50006 4.53541 8.26905 5.82733 7.58698 5.14526C6.90491 4.46319 4.96465 7 4.00006 7Z" fill="white"/>
</svg>
