<svg width="36" height="37" viewBox="0 0 36 37" fill="none" xmlns="http://www.w3.org/2000/svg">
<g filter="url(#filter0_d_2_151)">
<path d="M12.75 3.74989C12.2859 3.74989 11.8408 3.93427 11.5126 4.26246C11.1844 4.59065 11 5.03576 11 5.49989C11 5.96402 11.1844 6.40914 11.5126 6.73733C11.8408 7.06552 12.2859 7.24989 12.75 7.24989C13.2141 7.24989 13.6592 7.06552 13.9874 6.73733C14.3156 6.40914 14.5 5.96402 14.5 5.49989C14.5 5.03576 14.3156 4.59065 13.9874 4.26246C13.6592 3.93427 13.2141 3.74989 12.75 3.74989ZM7.7975 3.74989C8.15905 2.72521 8.82954 1.8379 9.71655 1.21028C10.6036 0.582648 11.6634 0.245605 12.75 0.245605C13.8366 0.245605 14.8964 0.582648 15.7835 1.21028C16.6705 1.8379 17.3409 2.72521 17.7025 3.74989H30.25C30.7141 3.74989 31.1593 3.93427 31.4874 4.26246C31.8156 4.59065 32 5.03576 32 5.49989C32 5.96402 31.8156 6.40914 31.4874 6.73733C31.1593 7.06552 30.7141 7.24989 30.25 7.24989H17.7025C17.3409 8.27458 16.6705 9.16189 15.7835 9.78951C14.8964 10.4171 13.8366 10.7542 12.75 10.7542C11.6634 10.7542 10.6036 10.4171 9.71655 9.78951C8.82954 9.16189 8.15905 8.27458 7.7975 7.24989H5.75C5.28587 7.24989 4.84075 7.06552 4.51256 6.73733C4.18437 6.40914 4 5.96402 4 5.49989C4 5.03576 4.18437 4.59065 4.51256 4.26246C4.84075 3.93427 5.28587 3.74989 5.75 3.74989H7.7975ZM23.25 14.2499C22.7859 14.2499 22.3408 14.4343 22.0126 14.7625C21.6844 15.0906 21.5 15.5358 21.5 15.9999C21.5 16.464 21.6844 16.9091 22.0126 17.2373C22.3408 17.5655 22.7859 17.7499 23.25 17.7499C23.7141 17.7499 24.1592 17.5655 24.4874 17.2373C24.8156 16.9091 25 16.464 25 15.9999C25 15.5358 24.8156 15.0906 24.4874 14.7625C24.1592 14.4343 23.7141 14.2499 23.25 14.2499ZM18.2975 14.2499C18.6591 13.2252 19.3295 12.3379 20.2165 11.7103C21.1036 11.0826 22.1634 10.7456 23.25 10.7456C24.3366 10.7456 25.3964 11.0826 26.2835 11.7103C27.1705 12.3379 27.8409 13.2252 28.2025 14.2499H30.25C30.7141 14.2499 31.1593 14.4343 31.4874 14.7625C31.8156 15.0906 32 15.5358 32 15.9999C32 16.464 31.8156 16.9091 31.4874 17.2373C31.1593 17.5655 30.7141 17.7499 30.25 17.7499H28.2025C27.8409 18.7746 27.1705 19.6619 26.2835 20.2895C25.3964 20.9171 24.3366 21.2542 23.25 21.2542C22.1634 21.2542 21.1036 20.9171 20.2165 20.2895C19.3295 19.6619 18.6591 18.7746 18.2975 17.7499H5.75C5.28587 17.7499 4.84075 17.5655 4.51256 17.2373C4.18437 16.9091 4 16.464 4 15.9999C4 15.5358 4.18437 15.0906 4.51256 14.7625C4.84075 14.4343 5.28587 14.2499 5.75 14.2499H18.2975ZM12.75 24.7499C12.2859 24.7499 11.8408 24.9343 11.5126 25.2625C11.1844 25.5906 11 26.0358 11 26.4999C11 26.964 11.1844 27.4091 11.5126 27.7373C11.8408 28.0655 12.2859 28.2499 12.75 28.2499C13.2141 28.2499 13.6592 28.0655 13.9874 27.7373C14.3156 27.4091 14.5 26.964 14.5 26.4999C14.5 26.0358 14.3156 25.5906 13.9874 25.2625C13.6592 24.9343 13.2141 24.7499 12.75 24.7499ZM7.7975 24.7499C8.15905 23.7252 8.82954 22.8379 9.71655 22.2103C10.6036 21.5826 11.6634 21.2456 12.75 21.2456C13.8366 21.2456 14.8964 21.5826 15.7835 22.2103C16.6705 22.8379 17.3409 23.7252 17.7025 24.7499H30.25C30.7141 24.7499 31.1593 24.9343 31.4874 25.2625C31.8156 25.5906 32 26.0358 32 26.4999C32 26.964 31.8156 27.4091 31.4874 27.7373C31.1593 28.0655 30.7141 28.2499 30.25 28.2499H17.7025C17.3409 29.2746 16.6705 30.1619 15.7835 30.7895C14.8964 31.4171 13.8366 31.7542 12.75 31.7542C11.6634 31.7542 10.6036 31.4171 9.71655 30.7895C8.82954 30.1619 8.15905 29.2746 7.7975 28.2499H5.75C5.28587 28.2499 4.84075 28.0655 4.51256 27.7373C4.18437 27.4091 4 26.964 4 26.4999C4 26.0358 4.18437 25.5906 4.51256 25.2625C4.84075 24.9343 5.28587 24.7499 5.75 24.7499H7.7975Z" fill="black"/>
<path d="M7.7975 4.24989H8.15129L8.26901 3.91626C8.59614 2.98914 9.2028 2.18631 10.0054 1.61843C10.8079 1.05056 11.7669 0.745605 12.75 0.745605C13.7331 0.745605 14.6921 1.05056 15.4946 1.61843C16.2972 2.18631 16.9039 2.98914 17.231 3.91626L17.3487 4.24989H17.7025H30.25C30.5815 4.24989 30.8995 4.38159 31.1339 4.61601C31.3683 4.85043 31.5 5.16837 31.5 5.49989C31.5 5.83141 31.3683 6.14936 31.1339 6.38378C30.8995 6.6182 30.5815 6.74989 30.25 6.74989H17.7025H17.3487L17.231 7.08352C16.9039 8.01065 16.2972 8.81348 15.4946 9.38136C14.6921 9.94923 13.7331 10.2542 12.75 10.2542C11.7669 10.2542 10.8079 9.94923 10.0054 9.38136C9.2028 8.81348 8.59614 8.01065 8.26901 7.08352L8.15129 6.74989H7.7975H5.75C5.41848 6.74989 5.10054 6.6182 4.86612 6.38378C4.6317 6.14936 4.5 5.83141 4.5 5.49989C4.5 5.16837 4.6317 4.85043 4.86612 4.61601C5.10054 4.38159 5.41848 4.24989 5.75 4.24989H7.7975ZM18.2975 14.7499H18.6513L18.769 14.4163C19.0961 13.4891 19.7028 12.6863 20.5054 12.1184C21.3079 11.5506 22.2669 11.2456 23.25 11.2456C24.2331 11.2456 25.1921 11.5506 25.9946 12.1184C26.7972 12.6863 27.4039 13.4891 27.731 14.4163L27.8487 14.7499H28.2025H30.25C30.5815 14.7499 30.8995 14.8816 31.1339 15.116C31.3683 15.3504 31.5 15.6684 31.5 15.9999C31.5 16.3314 31.3683 16.6494 31.1339 16.8838C30.8995 17.1182 30.5815 17.2499 30.25 17.2499H28.2025H27.8487L27.731 17.5835C27.4039 18.5107 26.7972 19.3135 25.9946 19.8814C25.1921 20.4492 24.2331 20.7542 23.25 20.7542C22.2669 20.7542 21.3079 20.4492 20.5054 19.8814C19.7028 19.3135 19.0961 18.5107 18.769 17.5835L18.6513 17.2499H18.2975H5.75C5.41848 17.2499 5.10054 17.1182 4.86612 16.8838C4.6317 16.6494 4.5 16.3314 4.5 15.9999C4.5 15.6684 4.6317 15.3504 4.86612 15.116L4.51256 14.7625L4.86612 15.116C5.10054 14.8816 5.41848 14.7499 5.75 14.7499H18.2975ZM7.7975 25.2499H8.15129L8.26901 24.9163C8.59614 23.9891 9.2028 23.1863 10.0054 22.6184C10.8079 22.0506 11.7669 21.7456 12.75 21.7456C13.7331 21.7456 14.6921 22.0506 15.4946 22.6184C16.2972 23.1863 16.9039 23.9891 17.231 24.9163L17.3487 25.2499H17.7025H30.25C30.5815 25.2499 30.8995 25.3816 31.1339 25.616C31.3683 25.8504 31.5 26.1684 31.5 26.4999C31.5 26.8314 31.3683 27.1494 31.1339 27.3838C30.8995 27.6182 30.5815 27.7499 30.25 27.7499H17.7025H17.3487L17.231 28.0835C16.9039 29.0107 16.2972 29.8135 15.4946 30.3814C14.6921 30.9492 13.7331 31.2542 12.75 31.2542C11.7669 31.2542 10.8079 30.9492 10.0054 30.3814C9.2028 29.8135 8.59614 29.0107 8.26901 28.0835L8.15129 27.7499H7.7975H5.75C5.41848 27.7499 5.10054 27.6182 4.86612 27.3838C4.6317 27.1494 4.5 26.8314 4.5 26.4999C4.5 26.1684 4.6317 25.8504 4.86612 25.616L4.51346 25.2634L4.86612 25.616C5.10054 25.3816 5.41848 25.2499 5.75 25.2499H7.7975ZM12.75 3.24989C12.1533 3.24989 11.581 3.48695 11.159 3.9089C10.7371 4.33086 10.5 4.90316 10.5 5.49989C10.5 6.09663 10.7371 6.66893 11.159 7.09088C11.581 7.51284 12.1533 7.74989 12.75 7.74989C13.3467 7.74989 13.919 7.51284 14.341 7.09088C14.7629 6.66893 15 6.09663 15 5.49989C15 4.90316 14.7629 4.33086 14.341 3.9089C13.919 3.48695 13.3467 3.24989 12.75 3.24989ZM23.25 13.7499C22.6533 13.7499 22.081 13.9869 21.659 14.4089C21.2371 14.8309 21 15.4032 21 15.9999C21 16.5966 21.2371 17.1689 21.659 17.5909C22.081 18.0128 22.6533 18.2499 23.25 18.2499C23.8467 18.2499 24.419 18.0128 24.841 17.5909C25.2629 17.1689 25.5 16.5966 25.5 15.9999C25.5 15.4032 25.2629 14.8309 24.841 14.4089C24.419 13.9869 23.8467 13.7499 23.25 13.7499ZM12.75 24.2499C12.1533 24.2499 11.581 24.4869 11.159 24.9089C10.7371 25.3309 10.5 25.9032 10.5 26.4999C10.5 27.0966 10.7371 27.6689 11.159 28.0909C11.581 28.5128 12.1533 28.7499 12.75 28.7499C13.3467 28.7499 13.919 28.5128 14.341 28.0909C14.7629 27.6689 15 27.0966 15 26.4999C15 25.9032 14.7629 25.3309 14.341 24.9089C13.919 24.4869 13.3467 24.2499 12.75 24.2499Z" stroke="black"/>
</g>
<defs>
<filter id="filter0_d_2_151" x="0" y="0.245605" width="36" height="39.5085" filterUnits="userSpaceOnUse" color-interpolation-filters="sRGB">
<feFlood flood-opacity="0" result="BackgroundImageFix"/>
<feColorMatrix in="SourceAlpha" type="matrix" values="0 0 0 0 0 0 0 0 0 0 0 0 0 0 0 0 0 0 127 0" result="hardAlpha"/>
<feOffset dy="4"/>
<feGaussianBlur stdDeviation="2"/>
<feComposite in2="hardAlpha" operator="out"/>
<feColorMatrix type="matrix" values="0 0 0 0 0 0 0 0 0 0 0 0 0 0 0 0 0 0 0.25 0"/>
<feBlend mode="normal" in2="BackgroundImageFix" result="effect1_dropShadow_2_151"/>
<feBlend mode="normal" in="SourceGraphic" in2="effect1_dropShadow_2_151" result="shape"/>
</filter>
</defs>
</svg>
