<svg width="19" height="19" viewBox="0 0 19 19" fill="none" xmlns="http://www.w3.org/2000/svg">
<path fill-rule="evenodd" clip-rule="evenodd" d="M5.04688 2.96875C3.46062 2.96875 1.78125 4.35125 1.78125 6.53125C1.78125 9.08401 3.65799 11.452 5.77683 13.2785C6.8107 14.1698 7.84892 14.8863 8.6307 15.3805C8.98233 15.6028 9.28022 15.7789 9.5 15.9047C9.71978 15.7789 10.0177 15.6028 10.3693 15.3805C11.1511 14.8863 12.1893 14.1698 13.2232 13.2785C15.342 11.452 17.2188 9.08401 17.2188 6.53125C17.2188 4.35125 15.5394 2.96875 13.9531 2.96875C12.3224 2.96875 10.8552 4.1394 10.3564 5.8853C10.2471 6.26765 9.89765 6.53125 9.5 6.53125C9.10235 6.53125 8.75288 6.26765 8.64365 5.8853C8.14481 4.1394 6.67754 2.96875 5.04688 2.96875ZM9.5 16.9219C9.09082 17.713 9.09059 17.7129 9.09031 17.7126L9.08757 17.7112L9.08118 17.7079L9.05924 17.6964C9.04059 17.6865 9.014 17.6724 8.97999 17.654C8.912 17.6173 8.81427 17.5636 8.69108 17.4939C8.44479 17.3544 8.09603 17.1499 7.67887 16.8861C6.84639 16.3598 5.73226 15.5919 4.61379 14.6277C2.42795 12.7433 0 9.91599 0 6.53125C0 3.3675 2.47688 1.1875 5.04688 1.1875C6.88437 1.1875 8.49406 2.13929 9.5 3.58619C10.5059 2.13929 12.1156 1.1875 13.9531 1.1875C16.5231 1.1875 19 3.3675 19 6.53125C19 9.91599 16.572 12.7433 14.3862 14.6277C13.2677 15.5919 12.1536 16.3598 11.3211 16.8861C10.904 17.1499 10.5552 17.3544 10.3089 17.4939C10.1857 17.5636 10.088 17.6173 10.02 17.654C9.986 17.6724 9.95941 17.6865 9.94076 17.6964L9.91882 17.7079L9.91243 17.7112L9.9097 17.7126C9.90941 17.7129 9.90918 17.713 9.5 16.9219ZM9.5 16.9219L9.9097 17.7126C9.65306 17.8454 9.34694 17.8454 9.09031 17.7126L9.5 16.9219Z" fill="#24292E"/>
</svg>
