<svg width="20" height="22" viewBox="0 0 20 22" fill="none" xmlns="http://www.w3.org/2000/svg">
<mask id="path-1-outside-1_290_308" maskUnits="userSpaceOnUse" x="-0.639038" y="0" width="21" height="22" fill="black">
<rect fill="white" x="-0.639038" width="21" height="22"/>
<path fill-rule="evenodd" clip-rule="evenodd" d="M3.02767 5.53361C0.812807 7.48199 0.360962 7.87947 0.360962 12.71C0.360962 20.997 2.32396 20.997 9.95096 20.997C17.578 20.997 19.537 20.997 19.537 12.71C19.537 7.88217 19.0859 7.48495 16.8714 5.53486C16.5043 5.21164 16.0889 4.84577 15.619 4.40999C15.3906 4.22658 15.1419 4.01735 14.8774 3.79482C13.4473 2.59172 11.5553 1 9.91898 1C8.30262 1 6.46736 2.56073 5.06373 3.7544C4.78355 3.99266 4.52058 4.2163 4.27997 4.40999C3.81014 4.84527 3.3947 5.21073 3.02767 5.53361ZM2.53097 7.39083C2.17689 7.7913 1.88861 8.25149 1.71681 8.75769C0.995106 10.8841 0.932373 12.9512 1.32014 15.906C1.63317 18.2914 3.7431 20.0001 6.14889 20.0001H13.8534C16.2581 20.0001 18.3723 18.2945 18.6703 15.9084C19.0119 13.1737 18.9512 11.1301 18.305 8.93243C18.1225 8.31194 17.7781 7.75067 17.3376 7.27713C11.5533 1.05943 8.41658 0.734087 2.53097 7.39083Z"/>
</mask>
<path fill-rule="evenodd" clip-rule="evenodd" d="M3.02767 5.53361C0.812807 7.48199 0.360962 7.87947 0.360962 12.71C0.360962 20.997 2.32396 20.997 9.95096 20.997C17.578 20.997 19.537 20.997 19.537 12.71C19.537 7.88217 19.0859 7.48495 16.8714 5.53486C16.5043 5.21164 16.0889 4.84577 15.619 4.40999C15.3906 4.22658 15.1419 4.01735 14.8774 3.79482C13.4473 2.59172 11.5553 1 9.91898 1C8.30262 1 6.46736 2.56073 5.06373 3.7544C4.78355 3.99266 4.52058 4.2163 4.27997 4.40999C3.81014 4.84527 3.3947 5.21073 3.02767 5.53361ZM2.53097 7.39083C2.17689 7.7913 1.88861 8.25149 1.71681 8.75769C0.995106 10.8841 0.932373 12.9512 1.32014 15.906C1.63317 18.2914 3.7431 20.0001 6.14889 20.0001H13.8534C16.2581 20.0001 18.3723 18.2945 18.6703 15.9084C19.0119 13.1737 18.9512 11.1301 18.305 8.93243C18.1225 8.31194 17.7781 7.75067 17.3376 7.27713C11.5533 1.05943 8.41658 0.734087 2.53097 7.39083Z" fill="white"/>
<path d="M3.02767 5.53361L3.15977 5.68377L3.02767 5.53361ZM16.8714 5.53486L16.7392 5.68495L16.8714 5.53486ZM15.619 4.40999L15.755 4.26334L15.7497 4.25851L15.7442 4.25405L15.619 4.40999ZM14.8774 3.79482L14.7486 3.94786L14.8774 3.79482ZM5.06373 3.7544L5.1933 3.90675L5.06373 3.7544ZM4.27997 4.40999L4.15425 4.25382L4.14404 4.26328L4.27997 4.40999ZM1.71681 8.75769L1.9062 8.82197L1.71681 8.75769ZM2.53097 7.39083L2.6808 7.5233L2.53097 7.39083ZM1.32014 15.906L1.12184 15.932L1.32014 15.906ZM18.6703 15.9084L18.4719 15.8836L18.6703 15.9084ZM18.305 8.93243L18.4969 8.87601V8.87601L18.305 8.93243ZM17.3376 7.27713L17.484 7.1409L17.3376 7.27713ZM0.560962 12.71C0.560962 10.2898 0.676136 9.02192 1.04868 8.11715C1.41748 7.22145 2.04413 6.66518 3.15977 5.68377L2.89557 5.38344C1.79634 6.35041 1.08964 6.96708 0.678805 7.96485C0.271711 8.95354 0.160962 10.2996 0.160962 12.71H0.560962ZM9.95096 20.797C8.04042 20.797 6.49943 20.7968 5.25538 20.6686C4.01101 20.5403 3.09221 20.2862 2.41241 19.7986C1.73899 19.3156 1.27564 18.5853 0.980408 17.4506C0.683815 16.3106 0.560962 14.7775 0.560962 12.71H0.160962C0.160962 14.7859 0.283484 16.3605 0.593296 17.5513C0.904472 18.7473 1.40855 19.5708 2.17926 20.1236C2.94358 20.6719 3.94559 20.9357 5.21438 21.0665C6.48349 21.1972 8.048 21.197 9.95096 21.197V20.797ZM19.337 12.71C19.337 14.7776 19.2144 16.3106 18.9181 17.4506C18.6232 18.5854 18.1604 19.3156 17.4875 19.7986C16.8082 20.2862 15.8899 20.5403 14.6459 20.6686C13.4022 20.7968 11.8615 20.797 9.95096 20.797V21.197C11.8539 21.197 13.4182 21.1972 14.6869 21.0665C15.9553 20.9357 16.9569 20.6719 17.7207 20.1236C18.4909 19.5707 18.9945 18.7472 19.3053 17.5512C19.6147 16.3605 19.737 14.7859 19.737 12.71H19.337ZM16.7392 5.68495C17.8547 6.66722 18.4811 7.22386 18.8497 8.1194C19.222 9.024 19.337 10.2912 19.337 12.71H19.737C19.737 10.301 19.6264 8.95565 19.2196 7.96716C18.809 6.96961 18.1026 6.35258 17.0036 5.38476L16.7392 5.68495ZM15.483 4.55663C15.955 4.99436 16.3722 5.36178 16.7392 5.68495L17.0036 5.38476C16.6365 5.0615 16.2228 4.69717 15.755 4.26334L15.483 4.55663ZM14.7486 3.94786C15.0127 4.17001 15.2632 4.38081 15.4937 4.56592L15.7442 4.25405C15.518 4.07235 15.2711 3.86468 15.0061 3.64178L14.7486 3.94786ZM9.91898 1.2C10.6782 1.2 11.52 1.57185 12.3677 2.11468C13.2112 2.65478 14.0318 3.34479 14.7486 3.94786L15.0061 3.64178C14.2929 3.04175 13.4525 2.33435 12.5834 1.77782C11.7185 1.22401 10.7961 0.8 9.91898 0.8V1.2ZM5.1933 3.90675C5.89696 3.30835 6.69668 2.62865 7.51998 2.09765C8.34722 1.56411 9.1698 1.2 9.91898 1.2V0.8C9.0518 0.8 8.14856 1.21626 7.30318 1.7615C6.45385 2.30928 5.63413 3.00678 4.93416 3.60204L5.1933 3.90675ZM4.40538 4.56578C4.6485 4.37007 4.91366 4.14456 5.1933 3.90675L4.93416 3.60204C4.65344 3.84077 4.39265 4.06253 4.15456 4.25419L4.40538 4.56578ZM3.15977 5.68377C3.52675 5.36094 3.94396 4.99393 4.41589 4.5567L4.14404 4.26328C3.67632 4.69661 3.26265 5.06052 2.89557 5.38344L3.15977 5.68377ZM1.9062 8.82197C2.06803 8.34517 2.34105 7.90757 2.6808 7.5233L2.38113 7.25835C2.01273 7.67502 1.7092 8.15782 1.52742 8.69341L1.9062 8.82197ZM1.51844 15.88C1.13275 12.941 1.19817 10.9081 1.9062 8.82197L1.52742 8.69341C0.792042 10.8601 0.731995 12.9614 1.12184 15.932L1.51844 15.88ZM6.14889 19.8001C3.83498 19.8001 1.81733 18.1576 1.51844 15.88L1.12184 15.932C1.44901 18.4251 3.65121 20.2001 6.14889 20.2001V19.8001ZM13.8534 19.8001H6.14889V20.2001H13.8534V19.8001ZM18.4719 15.8836C18.1875 18.1604 16.1669 19.8001 13.8534 19.8001V20.2001C16.3493 20.2001 18.5571 18.4287 18.8688 15.9332L18.4719 15.8836ZM18.1131 8.98885C18.7492 11.1521 18.8113 13.1663 18.4719 15.8836L18.8688 15.9332C19.2125 13.1811 19.1532 11.1081 18.4969 8.87601L18.1131 8.98885ZM17.1911 7.41335C17.6138 7.86765 17.9406 8.40237 18.1131 8.98886L18.4969 8.87601C18.3044 8.22151 17.9424 7.63368 17.484 7.1409L17.1911 7.41335ZM2.6808 7.5233C5.62427 4.19418 7.82563 2.68076 9.9699 2.70605C12.1184 2.73139 14.2956 4.30089 17.1911 7.41335L17.484 7.1409C14.5952 4.03567 12.3119 2.33365 9.97462 2.30608C7.63307 2.27846 5.32328 3.93073 2.38113 7.25835L2.6808 7.5233Z" fill="white" mask="url(#path-1-outside-1_290_308)"/>
</svg>
