<svg width="18" height="21" viewBox="0 0 18 21" fill="none" xmlns="http://www.w3.org/2000/svg">
<path d="M9.05597 0.00151219C10.1052 -0.0206046 11.1448 0.206201 12.0895 0.663347C13.0343 1.12049 13.8572 1.79496 14.491 2.6315C15.5483 4.00743 16.1358 5.68654 16.167 7.42151C16.167 7.84651 16.154 8.15451 16.144 8.40151C16.112 9.17351 16.112 9.1735 16.911 10.9315L16.927 10.9695C17.1417 11.4613 17.2278 11.9996 17.1772 12.5339C17.1267 13.0681 16.9411 13.5807 16.638 14.0235C15.7438 15.1072 14.5277 15.8778 13.166 16.2235C10.49 17.0611 7.62197 17.0611 4.94599 16.2235C3.58421 15.8779 2.368 15.1073 1.47397 14.0235C1.17101 13.5806 0.985624 13.068 0.935244 12.5337C0.884865 11.9995 0.971154 11.4612 1.18598 10.9695L1.20197 10.9315C2.00197 9.17451 2.00196 9.17451 1.96796 8.40151C1.95796 8.15451 1.94498 7.8465 1.94498 7.4205C1.97586 5.68565 2.563 4.00656 3.61997 2.63051C4.25394 1.79401 5.07711 1.11964 6.02201 0.66266C6.9669 0.205685 8.00662 -0.0208797 9.05597 0.00151219ZM15.536 11.5315C14.666 9.61451 14.601 9.4385 14.646 8.3405C14.656 8.1065 14.667 7.81651 14.667 7.42151C14.667 5.48951 13.295 1.50151 9.05597 1.50151C4.81697 1.50151 3.44498 5.48951 3.44498 7.42151C3.44498 7.81551 3.45698 8.1065 3.46698 8.3405C3.51198 9.4405 3.44697 9.61451 2.57697 11.5315C2.454 11.7937 2.40186 12.0835 2.42572 12.3721C2.44958 12.6607 2.54863 12.9381 2.71298 13.1765C3.64298 14.5365 6.66897 15.3495 9.05597 15.3495C11.443 15.3495 14.469 14.5365 15.4 13.1765C15.5637 12.9377 15.662 12.6602 15.6852 12.3716C15.7083 12.083 15.6555 11.7934 15.532 11.5315H15.536Z" fill="white"/>
<path d="M9.04998 20.5906C8.50448 20.5839 7.96671 20.4609 7.47262 20.2296C6.97853 19.9983 6.53953 19.6642 6.18499 19.2496C6.05238 19.1012 5.98416 18.9062 5.99532 18.7075C6.00648 18.5088 6.09611 18.3227 6.2445 18.1901C6.39289 18.0575 6.58786 17.9892 6.78655 18.0004C6.98525 18.0116 7.17137 18.1012 7.30398 18.2496C7.51871 18.5058 7.78561 18.7134 8.08684 18.8584C8.38808 19.0034 8.71676 19.0826 9.05099 19.0906C9.38615 19.083 9.71585 19.004 10.0181 18.859C10.3204 18.714 10.5883 18.5062 10.804 18.2496C10.8695 18.1755 10.9489 18.1151 11.0378 18.0719C11.1267 18.0286 11.2233 18.0034 11.322 17.9976C11.4207 17.9918 11.5196 18.0056 11.6129 18.0382C11.7062 18.0707 11.7922 18.1214 11.8659 18.1873C11.9396 18.2532 11.9995 18.3331 12.0422 18.4222C12.085 18.5113 12.1096 18.6081 12.1149 18.7068C12.1201 18.8055 12.1057 18.9043 12.0726 18.9974C12.0395 19.0906 11.9883 19.1763 11.922 19.2496C11.5663 19.6647 11.1261 19.9991 10.6309 20.2303C10.1356 20.4616 9.59657 20.5844 9.04998 20.5906Z" fill="white"/>
</svg>
