<svg width="17" height="21" viewBox="0 0 17 21" fill="none" xmlns="http://www.w3.org/2000/svg">
<path d="M8.13471 0.00151219C9.18398 -0.0206046 10.2236 0.206201 11.1683 0.663347C12.113 1.12049 12.9359 1.79496 13.5697 2.6315C14.627 4.00743 15.2145 5.68654 15.2457 7.42151C15.2457 7.84651 15.2327 8.15451 15.2227 8.40151C15.1907 9.17351 15.1907 9.1735 15.9897 10.9315L16.0057 10.9695C16.2204 11.4613 16.3065 11.9996 16.256 12.5339C16.2054 13.0681 16.0198 13.5807 15.7167 14.0235C14.8226 15.1072 13.6064 15.8778 12.2447 16.2235C9.5687 17.0611 6.70071 17.0611 4.02472 16.2235C2.66294 15.8779 1.44674 15.1073 0.552706 14.0235C0.249747 13.5806 0.064359 13.068 0.0139796 12.5337C-0.0363997 11.9995 0.0498896 11.4612 0.264712 10.9695L0.280703 10.9315C1.0807 9.17451 1.08069 9.17451 1.04669 8.40151C1.03669 8.15451 1.02371 7.8465 1.02371 7.4205C1.05459 5.68565 1.64174 4.00656 2.6987 2.63051C3.33268 1.79401 4.15585 1.11964 5.10074 0.66266C6.04563 0.205685 7.08535 -0.0208797 8.13471 0.00151219ZM11 12C10.13 10.083 14.455 15.098 14.5 14C15 14.5 11 14.895 11 14.5C11 12.568 11.739 14 7.5 14C3.261 14 6.79284 10.4401 6.79284 12.3721C6.79284 12.7661 4.99 12.266 5 12.5C5.045 13.6 1.87 11.583 1 13.5C0.877033 13.7622 1.4806 12.0835 1.50446 12.3721C1.52832 12.6607 2.83564 11.2616 3 11.5C3.93 12.86 6.613 7.5 9 7.5C11.387 7.5 12.569 13.36 13.5 12C13.6637 11.7612 13.4768 12.7886 13.5 12.5C13.5232 12.2114 13.1235 14.7618 13 14.5L11 12Z" fill="white"/>
<path d="M8.12871 20.5906C7.58322 20.5839 7.04544 20.4609 6.55135 20.2296C6.05726 19.9983 5.61826 19.6642 5.26372 19.2496C5.13112 19.1012 5.0629 18.9062 5.07406 18.7075C5.08522 18.5088 5.17485 18.3227 5.32323 18.1901C5.47162 18.0575 5.66659 17.9892 5.86529 18.0004C6.06398 18.0116 6.2501 18.1012 6.38271 18.2496C6.59745 18.5058 6.86434 18.7134 7.16558 18.8584C7.46682 19.0034 7.79549 19.0826 8.12972 19.0906C8.46489 19.083 8.79459 19.004 9.09685 18.859C9.39912 18.714 9.66702 18.5062 9.88271 18.2496C9.94819 18.1755 10.0277 18.1151 10.1166 18.0719C10.2055 18.0286 10.3021 18.0034 10.4007 17.9976C10.4994 17.9918 10.5983 18.0056 10.6916 18.0382C10.785 18.0707 10.8709 18.1214 10.9446 18.1873C11.0183 18.2532 11.0782 18.3331 11.121 18.4222C11.1637 18.5113 11.1884 18.6081 11.1936 18.7068C11.1988 18.8055 11.1845 18.9043 11.1514 18.9974C11.1183 19.0906 11.0671 19.1763 11.0007 19.2496C10.6451 19.6647 10.2049 19.9991 9.70959 20.2303C9.21429 20.4616 8.67531 20.5844 8.12871 20.5906Z" fill="white"/>
</svg>
