<svg width="17" height="21" viewBox="0 0 17 21" fill="none" xmlns="http://www.w3.org/2000/svg">
<path d="M8.51599 20.7939C6.80992 20.8591 5.10445 20.6512 3.46405 20.1779C1.36405 19.4529 0.921021 18.1409 0.921021 17.1689C0.978254 16.4041 1.22472 15.6656 1.63824 15.0197C2.05177 14.3739 2.61941 13.8409 3.29004 13.4689C4.86134 12.508 6.667 11.9985 8.50885 11.9963C10.3507 11.9942 12.1575 12.4996 13.731 13.4569C14.4037 13.8257 14.9736 14.3567 15.389 15.0016C15.8045 15.6465 16.0523 16.3849 16.11 17.1499C16.11 18.1229 15.671 19.4359 13.577 20.1679C11.935 20.6488 10.2257 20.8602 8.51599 20.7939ZM8.51599 13.4939C6.96278 13.4784 5.43709 13.9039 4.11603 14.7209C3.65649 14.961 3.26232 15.3093 2.96753 15.7358C2.67274 16.1623 2.48617 16.6542 2.42401 17.1689C2.42401 18.5789 4.47504 19.2939 8.51904 19.2939C12.563 19.2939 14.613 18.5719 14.613 17.1479C14.5497 16.634 14.3617 16.1435 14.0654 15.7189C13.7691 15.2943 13.3735 14.9486 12.913 14.7119C11.591 13.9006 10.067 13.4785 8.51599 13.4939Z" fill="white"/>
<path d="M8.508 10.306H8.47706C7.11174 10.3019 5.80383 9.75611 4.84058 8.78851C3.87734 7.82091 3.33749 6.51058 3.33954 5.14526C3.3416 3.77995 3.88542 2.47126 4.85157 1.50656C5.81772 0.541862 7.12718 0 8.4925 0C9.85782 0 11.1673 0.541862 12.1335 1.50656C13.0996 2.47126 13.6435 3.77995 13.6455 5.14526C13.6476 6.51058 13.1077 7.82091 12.1445 8.78851C11.1812 9.75611 9.87331 10.3019 8.508 10.306ZM8.508 1.53198C8.03038 1.53014 7.55708 1.62239 7.11512 1.80347C6.67315 1.98454 6.27122 2.25091 5.9322 2.58734C5.59317 2.92377 5.3237 3.32366 5.13923 3.76422C4.95475 4.20478 4.85884 4.67738 4.857 5.155C4.85516 5.63262 4.94747 6.10592 5.12855 6.54788C5.30962 6.98985 5.57593 7.39181 5.91236 7.73083C6.24879 8.06986 6.64874 8.3393 7.0893 8.52377C7.52986 8.70825 8.00243 8.80416 8.48005 8.806H8.508C9.47259 8.806 10.3977 8.42279 11.0798 7.74072C11.7618 7.05865 12.145 6.13357 12.145 5.16898C12.145 4.20438 11.7618 3.2793 11.0798 2.59723C10.3977 1.91516 9.47259 1.53198 8.508 1.53198Z" fill="white"/>
</svg>
