<svg width="17" height="21" viewBox="0 0 17 21" fill="none" xmlns="http://www.w3.org/2000/svg">
<path d="M13.8351 17.1579C13.7601 17.358 13.689 17.5506 13.6228 17.7364C13.4134 18.3246 13.2942 18.7389 13.2782 18.9796C13.2781 18.9797 13.2781 18.9799 13.2781 18.98L13.8351 17.1579ZM13.8351 17.1579C13.8044 17.3553 13.7767 17.542 13.7529 17.7148C13.7022 18.084 13.6662 18.4132 13.6615 18.6572C13.6604 18.7129 13.6606 18.7731 13.6643 18.8339M13.8351 17.1579L13.6643 18.8339M14.2439 19.3896C14.3824 19.4559 14.5092 19.4363 14.5284 19.4334C14.5291 19.4333 14.5297 19.4332 14.5301 19.4331C14.5821 19.4256 14.6206 19.4114 14.6335 19.4066C14.6509 19.4 14.6642 19.3939 14.6712 19.3905C14.6897 19.3816 14.7037 19.3731 14.7028 19.3736C14.7024 19.3739 14.6974 19.3769 14.6864 19.384C14.6782 19.3893 14.6671 19.3965 14.6536 19.4053C14.6396 19.4144 14.6231 19.4252 14.6048 19.437M14.2439 19.3896L14.2409 19.5C14.2419 19.5 14.2429 19.5 14.2439 19.5C14.3524 19.4998 14.4622 19.4887 14.5661 19.452C14.5796 19.4473 14.5925 19.4422 14.6048 19.437M14.2439 19.3896V19.0743V19.3896ZM14.6048 19.437C14.5743 19.4567 14.5389 19.4795 14.5017 19.5028C14.337 19.6063 14.0875 19.7545 13.8255 19.8633C13.7906 19.8777 13.7546 19.8919 13.7176 19.9055C13.9033 19.9684 14.0764 20 14.2389 20H14.248L14.2572 20.0003C14.4239 20.0064 14.59 19.9785 14.7456 19.9183C14.9003 19.8584 15.0412 19.7678 15.1599 19.6519C15.4899 19.3198 15.7131 18.7541 15.826 17.4286C15.9379 16.1136 15.9349 14.1834 15.9299 11.2429L15.9299 11.242L15.9299 11.2382V11.2345V11.2307V11.2269V11.2232V11.2194V11.2156V11.2119V11.2081V11.2043V11.2006V11.1968V11.193V11.1892V11.1855V11.1817V11.1779V11.1741V11.1703V11.1666V11.1628V11.159V11.1552V11.1514V11.1476V11.1438V11.1401V11.1363V11.1325V11.1287V11.1249V11.1211V11.1173V11.1135V11.1097V11.1059V11.1021V11.0983V11.0945V11.0907V11.0869V11.0831V11.0793V11.0755V11.0717V11.0679V11.064V11.0602V11.0564V11.0526V11.0488V11.045V11.0412V11.0373V11.0335V11.0297V11.0259V11.0221V11.0182V11.0144V11.0106V11.0068V11.0029V10.9991V10.9953V10.9915V10.9876V10.9838V10.98V10.9761V10.9723V10.9685V10.9646V10.9608V10.9569V10.9531V10.9493V10.9454V10.9416V10.9377V10.9339V10.93V10.9262V10.9223V10.9185V10.9146V10.9108V10.9069V10.9031V10.8992V10.8954V10.8915V10.8876V10.8838V10.8799V10.8761V10.8722V10.8683V10.8645V10.8606V10.8567V10.8529V10.849V10.8451V10.8413V10.8374V10.8335V10.8296V10.8258V10.8219V10.818V10.8141V10.8103V10.8064V10.8025V10.7986V10.7947V10.7908V10.787V10.7831V10.7792V10.7753V10.7714V10.7675V10.7636V10.7597V10.7558V10.7519V10.748V10.7441V10.7402V10.7364V10.7325V10.7285V10.7246V10.7207V10.7168V10.7129V10.709V10.7051V10.7012V10.6973V10.6934V10.6895V10.6856V10.6817V10.6777V10.6738V10.6699V10.666V10.6621V10.6581V10.6542V10.6503V10.6464V10.6425V10.6385V10.6346V10.6307V10.6267V10.6228V10.6189V10.615V10.611V10.6071V10.6032V10.5992V10.5953V10.5913V10.5874V10.5835V10.5795V10.5756V10.5716V10.5677V10.5638V10.5598V10.5559V10.5519V10.548V10.544V10.5401V10.5361V10.5322V10.5282V10.5242V10.5203V10.5163V10.5124V10.5084V10.5044V10.5005V10.4965V10.4926V10.4886V10.4846V10.4807V10.4767V10.4727V10.4688V10.4648V10.4608V10.4568V10.4529V10.4489V10.4449V10.4409V10.437V10.433V10.429V10.425V10.421V10.417V10.4131V10.4091V10.4051V10.4011V10.3971V10.3931V10.3891V10.3851V10.3811V10.3772V10.3732V10.3692V10.3652V10.3612V10.3572V10.3532V10.3492V10.3452V10.3412V10.3372V10.3331V10.3291V10.3251V10.3211V10.3171V10.3131V10.3091V10.3051V10.3011V10.297V10.293V10.289V10.285V10.281V10.277V10.2729V10.2689V10.2649V10.2609V10.2568V10.2528V10.2488V10.2448V10.2407V10.2367V10.2327V10.2286V10.2246V10.2206V10.2165V10.2125V10.2084V10.2044V10.2004V10.1963V10.1923V10.1882V10.1842V10.1802V10.1761V10.1721V10.168V10.164V10.1599V10.1559V10.1518V10.1477V10.1437V10.1396V10.1356V10.1315V10.1275V10.1234V10.1193V10.1153V10.1112V10.1072V10.1031V10.099V10.095V10.0909V10.0868V10.0827V10.0787V10.0746V10.0705V10.0665V10.0624V10.0583V10.0542V10.0501V10.0461V10.042V10.0379V10.0338V10.0297V10.0256V10.0216V10.0175V10.0134V10.0093V10.0052V10.0011V9.99702V9.99293V9.98883V9.98474V9.98064V9.97654V9.97244V9.96834V9.96424V9.96014V9.95604V9.95193V9.94783V9.94372V9.93962V9.93551V9.9314V9.92729V9.92318V9.91906V9.91495V9.91084V9.90672V9.9026V9.89849V9.89437V9.89025V9.88613V9.882V9.87788V9.87376V9.86963V9.86551V9.86138V9.85725V9.85312V9.84899V9.84486V9.84073V9.8366V9.83246V9.82833V9.82419V9.82005V9.81591V9.81177V9.80763V9.80349V9.79935V9.79521V9.79106V9.78691V9.78277V9.77862V9.77447V9.77032V9.76617V9.76202V9.75786V9.75371V9.74955V9.7454V9.74124V9.73708V9.73292V9.72876V9.7246V9.72044V9.71628V9.71211V9.70794V9.70378V9.69961V9.69544V9.69127V9.6871V9.68293V9.67876V9.67458V9.67041V9.66623V9.66205V9.65788V9.6537V9.64952V9.64533V9.64115V9.63697V9.63278V9.6286V9.62441V9.62022V9.61604V9.61185V9.60765V9.60346V9.59927V9.59508V9.59088V9.58669V9.58249V9.57829V9.57409V9.56989V9.56569V9.56149V9.55728V9.55308V9.54887V9.54467V9.54046V9.53625V9.53204V9.52783V9.52362V9.51941V9.51519V9.51098V9.50676V9.50255V9.49833V9.49411V9.48989V9.48567V9.48144V9.47722V9.473V9.46877V9.46455V9.46032V9.45609V9.45186V9.44763V9.4434V9.43917V9.43493V9.4307V9.42646V9.42222V9.41799V9.41375V9.40951V9.40527V9.40103V9.39678V9.39254V9.38829V9.38405V9.3798V9.37555V9.3713V9.36705V9.3628V9.35855V9.35429V9.35004V9.34578V9.34153V9.33727V9.33301V9.32875V9.32449V9.32023V9.31597V9.3117V9.30744V9.30317V9.2989V9.29464V9.29037V9.2861V9.28183V9.27755V9.27328V9.269V9.26473V9.26045V9.25618V9.2519V9.24762V9.24334V9.23905V9.23477V9.23049V9.2262V9.22192V9.21763V9.21334V9.20905V9.20476V9.20047V9.19618V9.19189V9.18759V9.1833V9.179C15.9299 7.33015 15.8667 5.83601 15.6519 4.63839C15.4375 3.44297 15.0798 2.58994 14.5267 1.98419C13.9842 1.39013 13.258 1.01684 12.2334 0.792979C11.1971 0.56656 9.88889 0.5 8.2139 0.5C6.53889 0.5 5.23069 0.566563 4.19491 0.792968C3.17081 1.01682 2.44603 1.39001 1.90562 1.98361L1.90523 1.98403C1.35194 2.59036 0.994295 3.44351 0.779912 4.63877C0.565129 5.83627 0.501892 7.33015 0.501892 9.179V9.1833V9.1876V9.1919V9.1962V9.20049V9.20479V9.20908V9.21337V9.21767V9.22196V9.22625V9.23053V9.23482V9.23911V9.24339V9.24768V9.25196V9.25624V9.26053V9.26481V9.26908V9.27336V9.27764V9.28192V9.28619V9.29047V9.29474V9.29901V9.30328V9.30755V9.31182V9.31609V9.32035V9.32462V9.32888V9.33315V9.33741V9.34167V9.34593V9.35019V9.35445V9.3587V9.36296V9.36722V9.37147V9.37572V9.37997V9.38423V9.38848V9.39272V9.39697V9.40122V9.40546V9.40971V9.41395V9.41819V9.42243V9.42667V9.43091V9.43515V9.43939V9.44363V9.44786V9.45209V9.45633V9.46056V9.46479V9.46902V9.47325V9.47748V9.4817V9.48593V9.49015V9.49438V9.4986V9.50282V9.50704V9.51126V9.51548V9.51969V9.52391V9.52812V9.53234V9.53655V9.54076V9.54497V9.54918V9.55339V9.5576V9.56181V9.56601V9.57022V9.57442V9.57862V9.58282V9.58702V9.59122V9.59542V9.59962V9.60381V9.60801V9.6122V9.6164V9.62059V9.62478V9.62897V9.63316V9.63734V9.64153V9.64572V9.6499V9.65408V9.65827V9.66245V9.66663V9.67081V9.67499V9.67916V9.68334V9.68751V9.69169V9.69586V9.70003V9.7042V9.70837V9.71254V9.71671V9.72087V9.72504V9.72921V9.73337V9.73753V9.74169V9.74585V9.75001V9.75417V9.75833V9.76248V9.76664V9.77079V9.77494V9.7791V9.78325V9.7874V9.79154V9.79569V9.79984V9.80398V9.80813V9.81227V9.81641V9.82056V9.8247V9.82884V9.83297V9.83711V9.84125V9.84538V9.84951V9.85365V9.85778V9.86191V9.86604V9.87017V9.8743V9.87842V9.88255V9.88667V9.8908V9.89492V9.89904V9.90316V9.90728V9.9114V9.91551V9.91963V9.92375V9.92786V9.93197V9.93608V9.9402V9.9443V9.94841V9.95252V9.95663V9.96073V9.96484V9.96894V9.97304V9.97714V9.98124V9.98534V9.98944V9.99354V9.99763V10.0017V10.0058V10.0099V10.014V10.0181V10.0222V10.0263V10.0304V10.0345V10.0385V10.0426V10.0467V10.0508V10.0549V10.0589V10.063V10.0671V10.0712V10.0753V10.0793V10.0834V10.0875V10.0916V10.0956V10.0997V10.1038V10.1078V10.1119V10.116V10.12V10.1241V10.1281V10.1322V10.1363V10.1403V10.1444V10.1484V10.1525V10.1566V10.1606V10.1647V10.1687V10.1728V10.1768V10.1809V10.1849V10.189V10.193V10.197V10.2011V10.2051V10.2092V10.2132V10.2173V10.2213V10.2253V10.2294V10.2334V10.2374V10.2415V10.2455V10.2495V10.2536V10.2576V10.2616V10.2656V10.2697V10.2737V10.2777V10.2817V10.2858V10.2898V10.2938V10.2978V10.3018V10.3058V10.3099V10.3139V10.3179V10.3219V10.3259V10.3299V10.3339V10.3379V10.3419V10.346V10.35V10.354V10.358V10.362V10.366V10.37V10.374V10.378V10.382V10.3859V10.3899V10.3939V10.3979V10.4019V10.4059V10.4099V10.4139V10.4179V10.4219V10.4258V10.4298V10.4338V10.4378V10.4418V10.4457V10.4497V10.4537V10.4577V10.4616V10.4656V10.4696V10.4736V10.4775V10.4815V10.4855V10.4894V10.4934V10.4974V10.5013V10.5053V10.5093V10.5132V10.5172V10.5211V10.5251V10.5291V10.533V10.537V10.5409V10.5449V10.5488V10.5528V10.5567V10.5607V10.5646V10.5686V10.5725V10.5765V10.5804V10.5844V10.5883V10.5922V10.5962V10.6001V10.604V10.608V10.6119V10.6159V10.6198V10.6237V10.6276V10.6316V10.6355V10.6394V10.6434V10.6473V10.6512V10.6551V10.6591V10.663V10.6669V10.6708V10.6747V10.6786V10.6826V10.6865V10.6904V10.6943V10.6982V10.7021V10.706V10.7099V10.7139V10.7178V10.7217V10.7256V10.7295V10.7334V10.7373V10.7412V10.7451V10.749V10.7529V10.7568V10.7607V10.7646V10.7684V10.7723V10.7762V10.7801V10.784V10.7879V10.7918V10.7957V10.7996V10.8034V10.8073V10.8112V10.8151V10.819V10.8228V10.8267V10.8306V10.8345V10.8383V10.8422V10.8461V10.85V10.8538V10.8577V10.8616V10.8654V10.8693V10.8732V10.877V10.8809V10.8847V10.8886V10.8925V10.8963V10.9002V10.904V10.9079V10.9117V10.9156V10.9194V10.9233V10.9271V10.931V10.9348V10.9387V10.9425V10.9464V10.9502V10.9541V10.9579V10.9617V10.9656V10.9694V10.9733V10.9771V10.9809V10.9848V10.9886V10.9924V10.9963V11.0001V11.0039V11.0077V11.0116V11.0154V11.0192V11.023V11.0269V11.0307V11.0345V11.0383V11.0421V11.046V11.0498V11.0536V11.0574V11.0612V11.065V11.0688V11.0727V11.0765V11.0803V11.0841V11.0879V11.0917V11.0955V11.0993V11.1031V11.1069V11.1107V11.1145V11.1183V11.1221V11.1259V11.1297V11.1335V11.1373V11.141V11.1448V11.1486V11.1524V11.1562V11.16V11.1638V11.1676V11.1713V11.1751V11.1789V11.1827V11.1865V11.1902V11.194V11.1978V11.2016V11.2053V11.2091V11.2129V11.2166V11.2204V11.2242V11.2279V11.2317V11.2355V11.2392V11.243V11.2438C0.496872 14.1839 0.493909 16.1138 0.60584 17.4287C0.718663 18.7541 0.941869 19.3198 1.27191 19.6519C1.39059 19.7678 1.53152 19.8584 1.68622 19.9183C1.84175 19.9785 2.00793 20.0064 2.17461 20.0003L2.18375 20H2.1929C2.37051 20 2.56114 19.9619 2.76761 19.886C2.47719 19.7753 2.19917 19.6309 2.00913 19.5273C1.96414 19.5028 1.92335 19.4802 1.88822 19.4606C1.87884 19.4577 1.86951 19.4546 1.86023 19.4513C1.73228 19.4057 1.65757 19.3368 1.62133 19.3006L1.61867 19.2979C1.6106 19.2897 1.5868 19.2654 1.56245 19.231C1.5511 19.215 1.52553 19.1774 1.50446 19.1241C1.48896 19.0848 1.4372 18.9432 1.49826 18.7716C1.57452 18.5573 1.75509 18.4746 1.85988 18.451C1.95042 18.4305 2.02356 18.4408 2.0478 18.4445C2.10328 18.4531 2.14564 18.4695 2.15648 18.4737L2.15712 18.4739C2.17369 18.4804 2.19059 18.4879 2.20614 18.4954C2.23669 18.4873 2.30439 18.4651 2.41737 18.4056C2.56783 18.3263 2.74888 18.2081 2.95175 18.06C3.35617 17.7648 3.79867 17.3874 4.18891 17.0546L4.19208 17.0519C4.43161 16.8472 4.70373 16.4761 5.01008 15.9785C5.21182 15.6509 5.41072 15.2988 5.61515 14.9369C5.7182 14.7545 5.82266 14.5696 5.92958 14.3841C5.97795 14.3001 6.02678 14.2162 6.07604 14.1327C6.03302 14.0616 6.00223 13.9723 6.00122 13.8618C5.99981 13.7078 6.0634 13.5926 6.11344 13.5261C6.16295 13.4603 6.21845 13.4155 6.25738 13.3878C6.3352 13.3325 6.42138 13.2935 6.49066 13.2662C6.54676 13.2442 6.60807 13.2235 6.6726 13.2044C6.7501 13.0975 6.82828 12.996 6.90705 12.9015C7.22147 12.5246 7.66129 12.1155 8.2139 12.1155C8.28113 12.1155 8.41743 12.0908 8.64154 12.0139C8.85544 11.9405 9.11061 11.8334 9.40126 11.7014C9.69092 11.5698 10.0052 11.4183 10.3379 11.2578L10.3456 11.2541C10.674 11.0957 11.0191 10.9293 11.3649 10.7706C12.0556 10.4538 12.7806 10.1529 13.4238 10.002C14.0277 9.86033 14.7491 9.80395 15.2544 10.2351L15.2558 10.2363C15.4087 10.3677 15.4823 10.5424 15.5221 10.674C15.5645 10.8145 15.5872 10.9707 15.5992 11.1272C15.6234 11.441 15.6096 11.8277 15.5751 12.2455C15.506 13.0849 15.3461 14.1305 15.1812 15.1365C15.1341 15.424 15.0866 15.7078 15.0405 15.9835C14.9235 16.6831 14.8152 17.3303 14.7436 17.851C14.7086 18.1054 14.6841 18.3182 14.6713 18.4851C14.7077 18.5022 14.745 18.5251 14.7814 18.5557C15.017 18.7539 14.956 19.0226 14.9398 19.0785C14.9182 19.1528 14.8841 19.2039 14.8751 19.2174L14.875 19.2175C14.861 19.2385 14.8482 19.2543 14.8412 19.2627C14.8269 19.2798 14.8139 19.293 14.8078 19.2992L14.8065 19.3006C14.7745 19.3325 14.7108 19.392 14.6048 19.437ZM13.6643 18.8339C13.5909 18.8726 13.5157 18.9091 13.4419 18.9397C13.3791 18.9658 13.3239 18.9849 13.2772 18.9976L13.6643 18.8339ZM3.32688 19.0192C3.38446 18.98 3.44215 18.9394 3.49963 18.898C3.4988 18.9425 3.49997 18.9875 3.50298 19.0329L3.32688 19.0192ZM3.32688 19.0192C3.37138 19.0316 3.41275 19.0411 3.45058 19.0477C3.47042 19.0511 3.48825 19.0536 3.50412 19.0552C3.50387 19.0483 3.50351 19.0409 3.50298 19.033L3.32688 19.0192ZM6.65877 16.9925C6.55555 17.0654 6.45121 17.1425 6.34664 17.2222C6.44035 16.9307 6.49201 16.5894 6.4976 16.1888C6.51306 16.1767 6.53612 16.1605 6.56957 16.1403C6.70937 16.0556 6.90453 15.9765 7.15733 15.874L7.18606 15.8623C7.42653 15.7648 7.72543 15.6426 7.96248 15.485C8.19047 15.3334 8.49811 15.0576 8.49811 14.6155C8.49811 14.5504 8.49782 14.4878 8.49726 14.4276C8.75625 14.3829 8.96799 14.3183 9.1401 14.2354C9.23924 14.1876 9.32653 14.1329 9.40203 14.0724C9.49823 14.1364 9.59992 14.1856 9.70688 14.2198C9.91833 14.2873 10.1183 14.2856 10.2885 14.2598C10.4532 14.2349 10.6036 14.185 10.7136 14.1471C10.7334 14.1403 10.7516 14.1339 10.7685 14.1281C10.8208 14.11 10.8605 14.0962 10.8941 14.0857C10.9473 14.2535 11 14.6109 11 15.316C11 15.372 11.0054 15.4933 11.0767 15.6169C11.1704 15.7794 11.3396 15.8796 11.5264 15.8841C11.6684 15.8876 11.7764 15.8346 11.8236 15.809C11.8805 15.7781 11.9289 15.7416 11.9657 15.7112C12.103 15.5979 12.2654 15.4108 12.4246 15.214C12.7568 14.8034 13.1945 14.1986 13.6206 13.6073C13.6484 13.5687 13.6762 13.5302 13.7039 13.4917C13.8898 13.2337 14.0724 12.9802 14.244 12.7453C14.0558 13.6039 13.7465 14.527 13.4189 15.4204C13.3059 15.7285 13.1887 16.0386 13.0754 16.3384C12.9321 16.7174 12.7951 17.0799 12.6808 17.4009C12.4784 17.9693 12.3069 18.5126 12.2803 18.914L12.2803 18.9148C12.2777 18.9547 12.2763 18.9949 12.2763 19.035C11.9523 18.7811 11.6169 18.4944 11.2642 18.1923L11.2635 18.1917L11.2469 18.1775C10.7969 17.7934 10.2719 17.3451 9.77301 16.9925C9.51994 16.8136 9.26108 16.6502 9.01126 16.5299C8.76925 16.4134 8.49287 16.316 8.21588 16.316C7.93889 16.316 7.66251 16.4134 7.42051 16.5299C7.17069 16.6502 6.91183 16.8136 6.65877 16.9925ZM6.46968 16.2143C6.46948 16.2143 6.47057 16.2127 6.47351 16.2097C6.47133 16.2128 6.46987 16.2143 6.46968 16.2143ZM8.68976 13.3421C8.61252 13.2484 8.51987 13.1901 8.4469 13.1548C8.42158 13.1425 8.39599 13.1317 8.37045 13.1222C8.36855 13.1171 8.36661 13.112 8.36462 13.107C8.48851 13.0936 8.61675 13.0656 8.74401 13.0297C8.74371 13.0303 8.74341 13.0309 8.74312 13.0315C8.72793 13.1074 8.72715 13.2201 8.73213 13.2552C8.73563 13.2728 8.74242 13.2999 8.74622 13.3133C8.73562 13.3195 8.72246 13.3266 8.70621 13.3344C8.70095 13.337 8.69547 13.3395 8.68976 13.3421ZM8.78609 13.2842C8.78622 13.2842 8.78547 13.2853 8.78346 13.2872C8.78495 13.2852 8.78595 13.2842 8.78609 13.2842ZM9.49604 12.7527C9.60021 12.7082 9.70678 12.6609 9.81491 12.6118C10.1169 12.4746 10.442 12.3179 10.7723 12.1585L10.7762 12.1567C11.1072 11.997 11.4449 11.8341 11.7819 11.6796C12.4647 11.3663 13.1129 11.1021 13.6522 10.9756C14.0239 10.8884 14.2683 10.8847 14.4233 10.917C14.3001 11.0344 14.152 11.212 14.0009 11.4042C13.694 11.7945 13.2946 12.349 12.8977 12.8999C12.8682 12.9409 12.8387 12.9818 12.8093 13.0227C12.5016 13.4497 12.1998 13.8668 11.9392 14.2104C11.9033 13.9596 11.8496 13.7554 11.7739 13.594C11.6812 13.3962 11.5341 13.2162 11.307 13.1235C11.0931 13.0361 10.8878 13.0601 10.7505 13.0899C10.6367 13.1146 10.5163 13.1567 10.4283 13.1875C10.4139 13.1926 10.4003 13.1973 10.3878 13.2016C10.2821 13.2381 10.2062 13.2609 10.1389 13.2711C10.077 13.2805 10.039 13.2761 10.0111 13.2672C9.98533 13.259 9.93713 13.2372 9.86915 13.1628C9.7654 13.0491 9.70543 12.9758 9.67386 12.9352C9.65823 12.915 9.64946 12.9028 9.64571 12.8974L9.64124 12.8909L9.63915 12.8878L9.63378 12.8801C9.63346 12.8796 9.62399 12.866 9.61108 12.8502C9.60993 12.8488 9.58328 12.815 9.54216 12.7812C9.53291 12.7742 9.5166 12.7641 9.49604 12.7527ZM15.4299 11.2445C15.4299 11.2444 15.4299 11.2442 15.4299 11.244L15.1058 11.2447L14.9299 11.245L15.4299 11.2445ZM14.9963 10.7015C14.95 10.6931 14.9048 10.6911 14.8632 10.6936L14.9299 10.6155L14.9963 10.7015ZM7.02776 14.4892C7.16434 14.4964 7.32069 14.5 7.49778 14.5C7.49793 14.5267 7.49804 14.5539 7.49808 14.5817C7.48512 14.5954 7.45879 14.619 7.40874 14.6523C7.27079 14.7441 7.06968 14.8304 6.81015 14.9357C6.79151 14.9432 6.77248 14.9509 6.75311 14.9587C6.75293 14.9588 6.75275 14.9589 6.75257 14.959C6.76708 14.9336 6.78155 14.9084 6.79597 14.8834C6.87439 14.7474 6.95162 14.6156 7.02776 14.4892ZM7.50921 14.5675C7.50941 14.5675 7.50868 14.569 7.50646 14.5719C7.50791 14.569 7.50902 14.5675 7.50921 14.5675ZM14.4299 11.246C14.4299 11.2478 14.4299 11.2497 14.4299 11.2515C14.4299 11.2491 14.4299 11.2472 14.4299 11.246ZM10.9906 14.0626C10.9906 14.0626 10.9901 14.0626 10.9891 14.0626L10.9906 14.0626Z" fill="white"/>
<path d="M13.8351 17.1579C13.7601 17.358 13.689 17.5506 13.6228 17.7364C13.4134 18.3246 13.2942 18.7389 13.2782 18.9796C13.2781 18.9797 13.2781 18.9799 13.2781 18.98L13.8351 17.1579ZM13.8351 17.1579C13.8044 17.3553 13.7767 17.542 13.7529 17.7148C13.7022 18.084 13.6662 18.4132 13.6615 18.6572C13.6604 18.7129 13.6606 18.7731 13.6643 18.8339M13.8351 17.1579L13.6643 18.8339M14.2439 19.3896C14.3824 19.4559 14.5092 19.4363 14.5284 19.4334C14.5291 19.4333 14.5297 19.4332 14.5301 19.4331C14.5821 19.4256 14.6206 19.4114 14.6335 19.4066C14.6509 19.4 14.6642 19.3939 14.6712 19.3905C14.6897 19.3816 14.7037 19.3731 14.7028 19.3736C14.7024 19.3739 14.6974 19.3769 14.6864 19.384C14.6782 19.3893 14.6671 19.3965 14.6536 19.4053C14.6396 19.4144 14.6231 19.4252 14.6048 19.437M14.2439 19.3896L14.2409 19.5C14.2419 19.5 14.2429 19.5 14.2439 19.5C14.3524 19.4998 14.4622 19.4887 14.5661 19.452C14.5796 19.4473 14.5925 19.4422 14.6048 19.437M14.2439 19.3896V19.0743V19.3896ZM14.6048 19.437C14.5743 19.4567 14.5389 19.4795 14.5017 19.5028C14.337 19.6063 14.0875 19.7545 13.8255 19.8633C13.7906 19.8777 13.7546 19.8919 13.7176 19.9055C13.9033 19.9684 14.0764 20 14.2389 20H14.248L14.2572 20.0003C14.4239 20.0064 14.59 19.9785 14.7456 19.9183C14.9003 19.8584 15.0412 19.7678 15.1599 19.6519C15.4899 19.3198 15.7131 18.7541 15.826 17.4286C15.9379 16.1136 15.9349 14.1834 15.9299 11.2429L15.9299 11.242L15.9299 11.2382V11.2345V11.2307V11.2269V11.2232V11.2194V11.2156V11.2119V11.2081V11.2043V11.2006V11.1968V11.193V11.1892V11.1855V11.1817V11.1779V11.1741V11.1703V11.1666V11.1628V11.159V11.1552V11.1514V11.1476V11.1438V11.1401V11.1363V11.1325V11.1287V11.1249V11.1211V11.1173V11.1135V11.1097V11.1059V11.1021V11.0983V11.0945V11.0907V11.0869V11.0831V11.0793V11.0755V11.0717V11.0679V11.064V11.0602V11.0564V11.0526V11.0488V11.045V11.0412V11.0373V11.0335V11.0297V11.0259V11.0221V11.0182V11.0144V11.0106V11.0068V11.0029V10.9991V10.9953V10.9915V10.9876V10.9838V10.98V10.9761V10.9723V10.9685V10.9646V10.9608V10.9569V10.9531V10.9493V10.9454V10.9416V10.9377V10.9339V10.93V10.9262V10.9223V10.9185V10.9146V10.9108V10.9069V10.9031V10.8992V10.8954V10.8915V10.8876V10.8838V10.8799V10.8761V10.8722V10.8683V10.8645V10.8606V10.8567V10.8529V10.849V10.8451V10.8413V10.8374V10.8335V10.8296V10.8258V10.8219V10.818V10.8141V10.8103V10.8064V10.8025V10.7986V10.7947V10.7908V10.787V10.7831V10.7792V10.7753V10.7714V10.7675V10.7636V10.7597V10.7558V10.7519V10.748V10.7441V10.7402V10.7364V10.7325V10.7285V10.7246V10.7207V10.7168V10.7129V10.709V10.7051V10.7012V10.6973V10.6934V10.6895V10.6856V10.6817V10.6777V10.6738V10.6699V10.666V10.6621V10.6581V10.6542V10.6503V10.6464V10.6425V10.6385V10.6346V10.6307V10.6267V10.6228V10.6189V10.615V10.611V10.6071V10.6032V10.5992V10.5953V10.5913V10.5874V10.5835V10.5795V10.5756V10.5716V10.5677V10.5638V10.5598V10.5559V10.5519V10.548V10.544V10.5401V10.5361V10.5322V10.5282V10.5242V10.5203V10.5163V10.5124V10.5084V10.5044V10.5005V10.4965V10.4926V10.4886V10.4846V10.4807V10.4767V10.4727V10.4688V10.4648V10.4608V10.4568V10.4529V10.4489V10.4449V10.4409V10.437V10.433V10.429V10.425V10.421V10.417V10.4131V10.4091V10.4051V10.4011V10.3971V10.3931V10.3891V10.3851V10.3811V10.3772V10.3732V10.3692V10.3652V10.3612V10.3572V10.3532V10.3492V10.3452V10.3412V10.3372V10.3331V10.3291V10.3251V10.3211V10.3171V10.3131V10.3091V10.3051V10.3011V10.297V10.293V10.289V10.285V10.281V10.277V10.2729V10.2689V10.2649V10.2609V10.2568V10.2528V10.2488V10.2448V10.2407V10.2367V10.2327V10.2286V10.2246V10.2206V10.2165V10.2125V10.2084V10.2044V10.2004V10.1963V10.1923V10.1882V10.1842V10.1802V10.1761V10.1721V10.168V10.164V10.1599V10.1559V10.1518V10.1477V10.1437V10.1396V10.1356V10.1315V10.1275V10.1234V10.1193V10.1153V10.1112V10.1072V10.1031V10.099V10.095V10.0909V10.0868V10.0827V10.0787V10.0746V10.0705V10.0665V10.0624V10.0583V10.0542V10.0501V10.0461V10.042V10.0379V10.0338V10.0297V10.0256V10.0216V10.0175V10.0134V10.0093V10.0052V10.0011V9.99702V9.99293V9.98883V9.98474V9.98064V9.97654V9.97244V9.96834V9.96424V9.96014V9.95604V9.95193V9.94783V9.94372V9.93962V9.93551V9.9314V9.92729V9.92318V9.91906V9.91495V9.91084V9.90672V9.9026V9.89849V9.89437V9.89025V9.88613V9.882V9.87788V9.87376V9.86963V9.86551V9.86138V9.85725V9.85312V9.84899V9.84486V9.84073V9.8366V9.83246V9.82833V9.82419V9.82005V9.81591V9.81177V9.80763V9.80349V9.79935V9.79521V9.79106V9.78691V9.78277V9.77862V9.77447V9.77032V9.76617V9.76202V9.75786V9.75371V9.74955V9.7454V9.74124V9.73708V9.73292V9.72876V9.7246V9.72044V9.71628V9.71211V9.70794V9.70378V9.69961V9.69544V9.69127V9.6871V9.68293V9.67876V9.67458V9.67041V9.66623V9.66205V9.65788V9.6537V9.64952V9.64533V9.64115V9.63697V9.63278V9.6286V9.62441V9.62022V9.61604V9.61185V9.60765V9.60346V9.59927V9.59508V9.59088V9.58669V9.58249V9.57829V9.57409V9.56989V9.56569V9.56149V9.55728V9.55308V9.54887V9.54467V9.54046V9.53625V9.53204V9.52783V9.52362V9.51941V9.51519V9.51098V9.50676V9.50255V9.49833V9.49411V9.48989V9.48567V9.48144V9.47722V9.473V9.46877V9.46455V9.46032V9.45609V9.45186V9.44763V9.4434V9.43917V9.43493V9.4307V9.42646V9.42222V9.41799V9.41375V9.40951V9.40527V9.40103V9.39678V9.39254V9.38829V9.38405V9.3798V9.37555V9.3713V9.36705V9.3628V9.35855V9.35429V9.35004V9.34578V9.34153V9.33727V9.33301V9.32875V9.32449V9.32023V9.31597V9.3117V9.30744V9.30317V9.2989V9.29464V9.29037V9.2861V9.28183V9.27755V9.27328V9.269V9.26473V9.26045V9.25618V9.2519V9.24762V9.24334V9.23905V9.23477V9.23049V9.2262V9.22192V9.21763V9.21334V9.20905V9.20476V9.20047V9.19618V9.19189V9.18759V9.1833V9.179C15.9299 7.33015 15.8667 5.83601 15.6519 4.63839C15.4375 3.44297 15.0798 2.58994 14.5267 1.98419C13.9842 1.39013 13.258 1.01684 12.2334 0.792979C11.1971 0.56656 9.88889 0.5 8.2139 0.5C6.53889 0.5 5.23069 0.566563 4.19491 0.792968C3.17081 1.01682 2.44603 1.39001 1.90562 1.98361L1.90523 1.98403C1.35194 2.59036 0.994295 3.44351 0.779912 4.63877C0.565129 5.83627 0.501892 7.33015 0.501892 9.179V9.1833V9.1876V9.1919V9.1962V9.20049V9.20479V9.20908V9.21337V9.21767V9.22196V9.22625V9.23053V9.23482V9.23911V9.24339V9.24768V9.25196V9.25624V9.26053V9.26481V9.26908V9.27336V9.27764V9.28192V9.28619V9.29047V9.29474V9.29901V9.30328V9.30755V9.31182V9.31609V9.32035V9.32462V9.32888V9.33315V9.33741V9.34167V9.34593V9.35019V9.35445V9.3587V9.36296V9.36722V9.37147V9.37572V9.37997V9.38423V9.38848V9.39272V9.39697V9.40122V9.40546V9.40971V9.41395V9.41819V9.42243V9.42667V9.43091V9.43515V9.43939V9.44363V9.44786V9.45209V9.45633V9.46056V9.46479V9.46902V9.47325V9.47748V9.4817V9.48593V9.49015V9.49438V9.4986V9.50282V9.50704V9.51126V9.51548V9.51969V9.52391V9.52812V9.53234V9.53655V9.54076V9.54497V9.54918V9.55339V9.5576V9.56181V9.56601V9.57022V9.57442V9.57862V9.58282V9.58702V9.59122V9.59542V9.59962V9.60381V9.60801V9.6122V9.6164V9.62059V9.62478V9.62897V9.63316V9.63734V9.64153V9.64572V9.6499V9.65408V9.65827V9.66245V9.66663V9.67081V9.67499V9.67916V9.68334V9.68751V9.69169V9.69586V9.70003V9.7042V9.70837V9.71254V9.71671V9.72087V9.72504V9.72921V9.73337V9.73753V9.74169V9.74585V9.75001V9.75417V9.75833V9.76248V9.76664V9.77079V9.77494V9.7791V9.78325V9.7874V9.79154V9.79569V9.79984V9.80398V9.80813V9.81227V9.81641V9.82056V9.8247V9.82884V9.83297V9.83711V9.84125V9.84538V9.84951V9.85365V9.85778V9.86191V9.86604V9.87017V9.8743V9.87842V9.88255V9.88667V9.8908V9.89492V9.89904V9.90316V9.90728V9.9114V9.91551V9.91963V9.92375V9.92786V9.93197V9.93608V9.9402V9.9443V9.94841V9.95252V9.95663V9.96073V9.96484V9.96894V9.97304V9.97714V9.98124V9.98534V9.98944V9.99354V9.99763V10.0017V10.0058V10.0099V10.014V10.0181V10.0222V10.0263V10.0304V10.0345V10.0385V10.0426V10.0467V10.0508V10.0549V10.0589V10.063V10.0671V10.0712V10.0753V10.0793V10.0834V10.0875V10.0916V10.0956V10.0997V10.1038V10.1078V10.1119V10.116V10.12V10.1241V10.1281V10.1322V10.1363V10.1403V10.1444V10.1484V10.1525V10.1566V10.1606V10.1647V10.1687V10.1728V10.1768V10.1809V10.1849V10.189V10.193V10.197V10.2011V10.2051V10.2092V10.2132V10.2173V10.2213V10.2253V10.2294V10.2334V10.2374V10.2415V10.2455V10.2495V10.2536V10.2576V10.2616V10.2656V10.2697V10.2737V10.2777V10.2817V10.2858V10.2898V10.2938V10.2978V10.3018V10.3058V10.3099V10.3139V10.3179V10.3219V10.3259V10.3299V10.3339V10.3379V10.3419V10.346V10.35V10.354V10.358V10.362V10.366V10.37V10.374V10.378V10.382V10.3859V10.3899V10.3939V10.3979V10.4019V10.4059V10.4099V10.4139V10.4179V10.4219V10.4258V10.4298V10.4338V10.4378V10.4418V10.4457V10.4497V10.4537V10.4577V10.4616V10.4656V10.4696V10.4736V10.4775V10.4815V10.4855V10.4894V10.4934V10.4974V10.5013V10.5053V10.5093V10.5132V10.5172V10.5211V10.5251V10.5291V10.533V10.537V10.5409V10.5449V10.5488V10.5528V10.5567V10.5607V10.5646V10.5686V10.5725V10.5765V10.5804V10.5844V10.5883V10.5922V10.5962V10.6001V10.604V10.608V10.6119V10.6159V10.6198V10.6237V10.6276V10.6316V10.6355V10.6394V10.6434V10.6473V10.6512V10.6551V10.6591V10.663V10.6669V10.6708V10.6747V10.6786V10.6826V10.6865V10.6904V10.6943V10.6982V10.7021V10.706V10.7099V10.7139V10.7178V10.7217V10.7256V10.7295V10.7334V10.7373V10.7412V10.7451V10.749V10.7529V10.7568V10.7607V10.7646V10.7684V10.7723V10.7762V10.7801V10.784V10.7879V10.7918V10.7957V10.7996V10.8034V10.8073V10.8112V10.8151V10.819V10.8228V10.8267V10.8306V10.8345V10.8383V10.8422V10.8461V10.85V10.8538V10.8577V10.8616V10.8654V10.8693V10.8732V10.877V10.8809V10.8847V10.8886V10.8925V10.8963V10.9002V10.904V10.9079V10.9117V10.9156V10.9194V10.9233V10.9271V10.931V10.9348V10.9387V10.9425V10.9464V10.9502V10.9541V10.9579V10.9617V10.9656V10.9694V10.9733V10.9771V10.9809V10.9848V10.9886V10.9924V10.9963V11.0001V11.0039V11.0077V11.0116V11.0154V11.0192V11.023V11.0269V11.0307V11.0345V11.0383V11.0421V11.046V11.0498V11.0536V11.0574V11.0612V11.065V11.0688V11.0727V11.0765V11.0803V11.0841V11.0879V11.0917V11.0955V11.0993V11.1031V11.1069V11.1107V11.1145V11.1183V11.1221V11.1259V11.1297V11.1335V11.1373V11.141V11.1448V11.1486V11.1524V11.1562V11.16V11.1638V11.1676V11.1713V11.1751V11.1789V11.1827V11.1865V11.1902V11.194V11.1978V11.2016V11.2053V11.2091V11.2129V11.2166V11.2204V11.2242V11.2279V11.2317V11.2355V11.2392V11.243V11.2438C0.496872 14.1839 0.493909 16.1138 0.60584 17.4287C0.718663 18.7541 0.941869 19.3198 1.27191 19.6519C1.39059 19.7678 1.53152 19.8584 1.68622 19.9183C1.84175 19.9785 2.00793 20.0064 2.17461 20.0003L2.18375 20H2.1929C2.37051 20 2.56114 19.9619 2.76761 19.886C2.47719 19.7753 2.19917 19.6309 2.00913 19.5273C1.96414 19.5028 1.92335 19.4802 1.88822 19.4606C1.87884 19.4577 1.86951 19.4546 1.86023 19.4513C1.73228 19.4057 1.65757 19.3368 1.62133 19.3006L1.61867 19.2979C1.6106 19.2897 1.5868 19.2654 1.56245 19.231C1.5511 19.215 1.52553 19.1774 1.50446 19.1241C1.48896 19.0848 1.4372 18.9432 1.49826 18.7716C1.57452 18.5573 1.75509 18.4746 1.85988 18.451C1.95042 18.4305 2.02356 18.4408 2.0478 18.4445C2.10328 18.4531 2.14564 18.4695 2.15648 18.4737L2.15712 18.4739C2.17369 18.4804 2.19059 18.4879 2.20614 18.4954C2.23669 18.4873 2.30439 18.4651 2.41737 18.4056C2.56783 18.3263 2.74888 18.2081 2.95175 18.06C3.35617 17.7648 3.79867 17.3874 4.18891 17.0546L4.19208 17.0519C4.43161 16.8472 4.70373 16.4761 5.01008 15.9785C5.21182 15.6509 5.41072 15.2988 5.61515 14.9369C5.7182 14.7545 5.82266 14.5696 5.92958 14.3841C5.97795 14.3001 6.02678 14.2162 6.07604 14.1327C6.03302 14.0616 6.00223 13.9723 6.00122 13.8618C5.99981 13.7078 6.0634 13.5926 6.11344 13.5261C6.16295 13.4603 6.21845 13.4155 6.25738 13.3878C6.3352 13.3325 6.42138 13.2935 6.49066 13.2662C6.54676 13.2442 6.60807 13.2235 6.6726 13.2044C6.7501 13.0975 6.82828 12.996 6.90705 12.9015C7.22147 12.5246 7.66129 12.1155 8.2139 12.1155C8.28113 12.1155 8.41743 12.0908 8.64154 12.0139C8.85544 11.9405 9.11061 11.8334 9.40126 11.7014C9.69092 11.5698 10.0052 11.4183 10.3379 11.2578L10.3456 11.2541C10.674 11.0957 11.0191 10.9293 11.3649 10.7706C12.0556 10.4538 12.7806 10.1529 13.4238 10.002C14.0277 9.86033 14.7491 9.80395 15.2544 10.2351L15.2558 10.2363C15.4087 10.3677 15.4823 10.5424 15.5221 10.674C15.5645 10.8145 15.5872 10.9707 15.5992 11.1272C15.6234 11.441 15.6096 11.8277 15.5751 12.2455C15.506 13.0849 15.3461 14.1305 15.1812 15.1365C15.1341 15.424 15.0866 15.7078 15.0405 15.9835C14.9235 16.6831 14.8152 17.3303 14.7436 17.851C14.7086 18.1054 14.6841 18.3182 14.6713 18.4851C14.7077 18.5022 14.745 18.5251 14.7814 18.5557C15.017 18.7539 14.956 19.0226 14.9398 19.0785C14.9182 19.1528 14.8841 19.2039 14.8751 19.2174L14.875 19.2175C14.861 19.2385 14.8482 19.2543 14.8412 19.2627C14.8269 19.2798 14.8139 19.293 14.8078 19.2992L14.8065 19.3006C14.7745 19.3325 14.7108 19.392 14.6048 19.437ZM13.6643 18.8339C13.5909 18.8726 13.5157 18.9091 13.4419 18.9397C13.3791 18.9658 13.3239 18.9849 13.2772 18.9976L13.6643 18.8339ZM3.32688 19.0192C3.38446 18.98 3.44215 18.9394 3.49963 18.898C3.4988 18.9425 3.49997 18.9875 3.50298 19.0329L3.32688 19.0192ZM3.32688 19.0192C3.37138 19.0316 3.41275 19.0411 3.45058 19.0477C3.47042 19.0511 3.48825 19.0536 3.50412 19.0552C3.50387 19.0483 3.50351 19.0409 3.50298 19.033L3.32688 19.0192ZM6.65877 16.9925C6.55555 17.0654 6.45121 17.1425 6.34664 17.2222C6.44035 16.9307 6.49201 16.5894 6.4976 16.1888C6.51306 16.1767 6.53612 16.1605 6.56957 16.1403C6.70937 16.0556 6.90453 15.9765 7.15733 15.874L7.18606 15.8623C7.42653 15.7648 7.72543 15.6426 7.96248 15.485C8.19047 15.3334 8.49811 15.0576 8.49811 14.6155C8.49811 14.5504 8.49782 14.4878 8.49726 14.4276C8.75625 14.3829 8.96799 14.3183 9.1401 14.2354C9.23924 14.1876 9.32653 14.1329 9.40203 14.0724C9.49823 14.1364 9.59992 14.1856 9.70688 14.2198C9.91833 14.2873 10.1183 14.2856 10.2885 14.2598C10.4532 14.2349 10.6036 14.185 10.7136 14.1471C10.7334 14.1403 10.7516 14.1339 10.7685 14.1281C10.8208 14.11 10.8605 14.0962 10.8941 14.0857C10.9473 14.2535 11 14.6109 11 15.316C11 15.372 11.0054 15.4933 11.0767 15.6169C11.1704 15.7794 11.3396 15.8796 11.5264 15.8841C11.6684 15.8876 11.7764 15.8346 11.8236 15.809C11.8805 15.7781 11.9289 15.7416 11.9657 15.7112C12.103 15.5979 12.2654 15.4108 12.4246 15.214C12.7568 14.8034 13.1945 14.1986 13.6206 13.6073C13.6484 13.5687 13.6762 13.5302 13.7039 13.4917C13.8898 13.2337 14.0724 12.9802 14.244 12.7453C14.0558 13.6039 13.7465 14.527 13.4189 15.4204C13.3059 15.7285 13.1887 16.0386 13.0754 16.3384C12.9321 16.7174 12.7951 17.0799 12.6808 17.4009C12.4784 17.9693 12.3069 18.5126 12.2803 18.914L12.2803 18.9148C12.2777 18.9547 12.2763 18.9949 12.2763 19.035C11.9523 18.7811 11.6169 18.4944 11.2642 18.1923L11.2635 18.1917L11.2469 18.1775C10.7969 17.7934 10.2719 17.3451 9.77301 16.9925C9.51994 16.8136 9.26108 16.6502 9.01126 16.5299C8.76925 16.4134 8.49287 16.316 8.21588 16.316C7.93889 16.316 7.66251 16.4134 7.42051 16.5299C7.17069 16.6502 6.91183 16.8136 6.65877 16.9925ZM6.46968 16.2143C6.46948 16.2143 6.47057 16.2127 6.47351 16.2097C6.47133 16.2128 6.46987 16.2143 6.46968 16.2143ZM8.68976 13.3421C8.61252 13.2484 8.51987 13.1901 8.4469 13.1548C8.42158 13.1425 8.39599 13.1317 8.37045 13.1222C8.36855 13.1171 8.36661 13.112 8.36462 13.107C8.48851 13.0936 8.61675 13.0656 8.74401 13.0297C8.74371 13.0303 8.74341 13.0309 8.74312 13.0315C8.72793 13.1074 8.72715 13.2201 8.73213 13.2552C8.73563 13.2728 8.74242 13.2999 8.74622 13.3133C8.73562 13.3195 8.72246 13.3266 8.70621 13.3344C8.70095 13.337 8.69547 13.3395 8.68976 13.3421ZM8.78609 13.2842C8.78622 13.2842 8.78547 13.2853 8.78346 13.2872C8.78495 13.2852 8.78595 13.2842 8.78609 13.2842ZM9.49604 12.7527C9.60021 12.7082 9.70678 12.6609 9.81491 12.6118C10.1169 12.4746 10.442 12.3179 10.7723 12.1585L10.7762 12.1567C11.1072 11.997 11.4449 11.8341 11.7819 11.6796C12.4647 11.3663 13.1129 11.1021 13.6522 10.9756C14.0239 10.8884 14.2683 10.8847 14.4233 10.917C14.3001 11.0344 14.152 11.212 14.0009 11.4042C13.694 11.7945 13.2946 12.349 12.8977 12.8999C12.8682 12.9409 12.8387 12.9818 12.8093 13.0227C12.5016 13.4497 12.1998 13.8668 11.9392 14.2104C11.9033 13.9596 11.8496 13.7554 11.7739 13.594C11.6812 13.3962 11.5341 13.2162 11.307 13.1235C11.0931 13.0361 10.8878 13.0601 10.7505 13.0899C10.6367 13.1146 10.5163 13.1567 10.4283 13.1875C10.4139 13.1926 10.4003 13.1973 10.3878 13.2016C10.2821 13.2381 10.2062 13.2609 10.1389 13.2711C10.077 13.2805 10.039 13.2761 10.0111 13.2672C9.98533 13.259 9.93713 13.2372 9.86915 13.1628C9.7654 13.0491 9.70543 12.9758 9.67386 12.9352C9.65823 12.915 9.64946 12.9028 9.64571 12.8974L9.64124 12.8909L9.63915 12.8878L9.63378 12.8801C9.63346 12.8796 9.62399 12.866 9.61108 12.8502C9.60993 12.8488 9.58328 12.815 9.54216 12.7812C9.53291 12.7742 9.5166 12.7641 9.49604 12.7527ZM15.4299 11.2445C15.4299 11.2444 15.4299 11.2442 15.4299 11.244L15.1058 11.2447L14.9299 11.245L15.4299 11.2445ZM14.9963 10.7015C14.95 10.6931 14.9048 10.6911 14.8632 10.6936L14.9299 10.6155L14.9963 10.7015ZM7.02776 14.4892C7.16434 14.4964 7.32069 14.5 7.49778 14.5C7.49793 14.5267 7.49804 14.5539 7.49808 14.5817C7.48512 14.5954 7.45879 14.619 7.40874 14.6523C7.27079 14.7441 7.06968 14.8304 6.81015 14.9357C6.79151 14.9432 6.77248 14.9509 6.75311 14.9587C6.75293 14.9588 6.75275 14.9589 6.75257 14.959C6.76708 14.9336 6.78155 14.9084 6.79597 14.8834C6.87439 14.7474 6.95162 14.6156 7.02776 14.4892ZM7.50921 14.5675C7.50941 14.5675 7.50868 14.569 7.50646 14.5719C7.50791 14.569 7.50902 14.5675 7.50921 14.5675ZM14.4299 11.246C14.4299 11.2478 14.4299 11.2497 14.4299 11.2515C14.4299 11.2491 14.4299 11.2472 14.4299 11.246ZM10.9906 14.0626C10.9906 14.0626 10.9901 14.0626 10.9891 14.0626L10.9906 14.0626Z" fill="white"/>
<path d="M13.8351 17.1579C13.7601 17.358 13.689 17.5506 13.6228 17.7364C13.4134 18.3246 13.2942 18.7389 13.2782 18.9796C13.2781 18.9797 13.2781 18.9799 13.2781 18.98L13.8351 17.1579ZM13.8351 17.1579C13.8044 17.3553 13.7767 17.542 13.7529 17.7148C13.7022 18.084 13.6662 18.4132 13.6615 18.6572C13.6604 18.7129 13.6606 18.7731 13.6643 18.8339M13.8351 17.1579L13.6643 18.8339M14.2439 19.3896C14.3824 19.4559 14.5092 19.4363 14.5284 19.4334C14.5291 19.4333 14.5297 19.4332 14.5301 19.4331C14.5821 19.4256 14.6206 19.4114 14.6335 19.4066C14.6509 19.4 14.6642 19.3939 14.6712 19.3905C14.6897 19.3816 14.7037 19.3731 14.7028 19.3736C14.7024 19.3739 14.6974 19.3769 14.6864 19.384C14.6782 19.3893 14.6671 19.3965 14.6536 19.4053C14.6396 19.4144 14.6231 19.4252 14.6048 19.437M14.2439 19.3896L14.2409 19.5C14.2419 19.5 14.2429 19.5 14.2439 19.5C14.3524 19.4998 14.4622 19.4887 14.5661 19.452C14.5796 19.4473 14.5925 19.4422 14.6048 19.437M14.2439 19.3896V19.0743V19.3896ZM14.6048 19.437C14.5743 19.4567 14.5389 19.4795 14.5017 19.5028C14.337 19.6063 14.0875 19.7545 13.8255 19.8633C13.7906 19.8777 13.7546 19.8919 13.7176 19.9055C13.9033 19.9684 14.0764 20 14.2389 20H14.248L14.2572 20.0003C14.4239 20.0064 14.59 19.9785 14.7456 19.9183C14.9003 19.8584 15.0412 19.7678 15.1599 19.6519C15.4899 19.3198 15.7131 18.7541 15.826 17.4286C15.9379 16.1136 15.9349 14.1834 15.9299 11.2429L15.9299 11.242L15.9299 11.2382V11.2345V11.2307V11.2269V11.2232V11.2194V11.2156V11.2119V11.2081V11.2043V11.2006V11.1968V11.193V11.1892V11.1855V11.1817V11.1779V11.1741V11.1703V11.1666V11.1628V11.159V11.1552V11.1514V11.1476V11.1438V11.1401V11.1363V11.1325V11.1287V11.1249V11.1211V11.1173V11.1135V11.1097V11.1059V11.1021V11.0983V11.0945V11.0907V11.0869V11.0831V11.0793V11.0755V11.0717V11.0679V11.064V11.0602V11.0564V11.0526V11.0488V11.045V11.0412V11.0373V11.0335V11.0297V11.0259V11.0221V11.0182V11.0144V11.0106V11.0068V11.0029V10.9991V10.9953V10.9915V10.9876V10.9838V10.98V10.9761V10.9723V10.9685V10.9646V10.9608V10.9569V10.9531V10.9493V10.9454V10.9416V10.9377V10.9339V10.93V10.9262V10.9223V10.9185V10.9146V10.9108V10.9069V10.9031V10.8992V10.8954V10.8915V10.8876V10.8838V10.8799V10.8761V10.8722V10.8683V10.8645V10.8606V10.8567V10.8529V10.849V10.8451V10.8413V10.8374V10.8335V10.8296V10.8258V10.8219V10.818V10.8141V10.8103V10.8064V10.8025V10.7986V10.7947V10.7908V10.787V10.7831V10.7792V10.7753V10.7714V10.7675V10.7636V10.7597V10.7558V10.7519V10.748V10.7441V10.7402V10.7364V10.7325V10.7285V10.7246V10.7207V10.7168V10.7129V10.709V10.7051V10.7012V10.6973V10.6934V10.6895V10.6856V10.6817V10.6777V10.6738V10.6699V10.666V10.6621V10.6581V10.6542V10.6503V10.6464V10.6425V10.6385V10.6346V10.6307V10.6267V10.6228V10.6189V10.615V10.611V10.6071V10.6032V10.5992V10.5953V10.5913V10.5874V10.5835V10.5795V10.5756V10.5716V10.5677V10.5638V10.5598V10.5559V10.5519V10.548V10.544V10.5401V10.5361V10.5322V10.5282V10.5242V10.5203V10.5163V10.5124V10.5084V10.5044V10.5005V10.4965V10.4926V10.4886V10.4846V10.4807V10.4767V10.4727V10.4688V10.4648V10.4608V10.4568V10.4529V10.4489V10.4449V10.4409V10.437V10.433V10.429V10.425V10.421V10.417V10.4131V10.4091V10.4051V10.4011V10.3971V10.3931V10.3891V10.3851V10.3811V10.3772V10.3732V10.3692V10.3652V10.3612V10.3572V10.3532V10.3492V10.3452V10.3412V10.3372V10.3331V10.3291V10.3251V10.3211V10.3171V10.3131V10.3091V10.3051V10.3011V10.297V10.293V10.289V10.285V10.281V10.277V10.2729V10.2689V10.2649V10.2609V10.2568V10.2528V10.2488V10.2448V10.2407V10.2367V10.2327V10.2286V10.2246V10.2206V10.2165V10.2125V10.2084V10.2044V10.2004V10.1963V10.1923V10.1882V10.1842V10.1802V10.1761V10.1721V10.168V10.164V10.1599V10.1559V10.1518V10.1477V10.1437V10.1396V10.1356V10.1315V10.1275V10.1234V10.1193V10.1153V10.1112V10.1072V10.1031V10.099V10.095V10.0909V10.0868V10.0827V10.0787V10.0746V10.0705V10.0665V10.0624V10.0583V10.0542V10.0501V10.0461V10.042V10.0379V10.0338V10.0297V10.0256V10.0216V10.0175V10.0134V10.0093V10.0052V10.0011V9.99702V9.99293V9.98883V9.98474V9.98064V9.97654V9.97244V9.96834V9.96424V9.96014V9.95604V9.95193V9.94783V9.94372V9.93962V9.93551V9.9314V9.92729V9.92318V9.91906V9.91495V9.91084V9.90672V9.9026V9.89849V9.89437V9.89025V9.88613V9.882V9.87788V9.87376V9.86963V9.86551V9.86138V9.85725V9.85312V9.84899V9.84486V9.84073V9.8366V9.83246V9.82833V9.82419V9.82005V9.81591V9.81177V9.80763V9.80349V9.79935V9.79521V9.79106V9.78691V9.78277V9.77862V9.77447V9.77032V9.76617V9.76202V9.75786V9.75371V9.74955V9.7454V9.74124V9.73708V9.73292V9.72876V9.7246V9.72044V9.71628V9.71211V9.70794V9.70378V9.69961V9.69544V9.69127V9.6871V9.68293V9.67876V9.67458V9.67041V9.66623V9.66205V9.65788V9.6537V9.64952V9.64533V9.64115V9.63697V9.63278V9.6286V9.62441V9.62022V9.61604V9.61185V9.60765V9.60346V9.59927V9.59508V9.59088V9.58669V9.58249V9.57829V9.57409V9.56989V9.56569V9.56149V9.55728V9.55308V9.54887V9.54467V9.54046V9.53625V9.53204V9.52783V9.52362V9.51941V9.51519V9.51098V9.50676V9.50255V9.49833V9.49411V9.48989V9.48567V9.48144V9.47722V9.473V9.46877V9.46455V9.46032V9.45609V9.45186V9.44763V9.4434V9.43917V9.43493V9.4307V9.42646V9.42222V9.41799V9.41375V9.40951V9.40527V9.40103V9.39678V9.39254V9.38829V9.38405V9.3798V9.37555V9.3713V9.36705V9.3628V9.35855V9.35429V9.35004V9.34578V9.34153V9.33727V9.33301V9.32875V9.32449V9.32023V9.31597V9.3117V9.30744V9.30317V9.2989V9.29464V9.29037V9.2861V9.28183V9.27755V9.27328V9.269V9.26473V9.26045V9.25618V9.2519V9.24762V9.24334V9.23905V9.23477V9.23049V9.2262V9.22192V9.21763V9.21334V9.20905V9.20476V9.20047V9.19618V9.19189V9.18759V9.1833V9.179C15.9299 7.33015 15.8667 5.83601 15.6519 4.63839C15.4375 3.44297 15.0798 2.58994 14.5267 1.98419C13.9842 1.39013 13.258 1.01684 12.2334 0.792979C11.1971 0.56656 9.88889 0.5 8.2139 0.5C6.53889 0.5 5.23069 0.566563 4.19491 0.792968C3.17081 1.01682 2.44603 1.39001 1.90562 1.98361L1.90523 1.98403C1.35194 2.59036 0.994295 3.44351 0.779912 4.63877C0.565129 5.83627 0.501892 7.33015 0.501892 9.179V9.1833V9.1876V9.1919V9.1962V9.20049V9.20479V9.20908V9.21337V9.21767V9.22196V9.22625V9.23053V9.23482V9.23911V9.24339V9.24768V9.25196V9.25624V9.26053V9.26481V9.26908V9.27336V9.27764V9.28192V9.28619V9.29047V9.29474V9.29901V9.30328V9.30755V9.31182V9.31609V9.32035V9.32462V9.32888V9.33315V9.33741V9.34167V9.34593V9.35019V9.35445V9.3587V9.36296V9.36722V9.37147V9.37572V9.37997V9.38423V9.38848V9.39272V9.39697V9.40122V9.40546V9.40971V9.41395V9.41819V9.42243V9.42667V9.43091V9.43515V9.43939V9.44363V9.44786V9.45209V9.45633V9.46056V9.46479V9.46902V9.47325V9.47748V9.4817V9.48593V9.49015V9.49438V9.4986V9.50282V9.50704V9.51126V9.51548V9.51969V9.52391V9.52812V9.53234V9.53655V9.54076V9.54497V9.54918V9.55339V9.5576V9.56181V9.56601V9.57022V9.57442V9.57862V9.58282V9.58702V9.59122V9.59542V9.59962V9.60381V9.60801V9.6122V9.6164V9.62059V9.62478V9.62897V9.63316V9.63734V9.64153V9.64572V9.6499V9.65408V9.65827V9.66245V9.66663V9.67081V9.67499V9.67916V9.68334V9.68751V9.69169V9.69586V9.70003V9.7042V9.70837V9.71254V9.71671V9.72087V9.72504V9.72921V9.73337V9.73753V9.74169V9.74585V9.75001V9.75417V9.75833V9.76248V9.76664V9.77079V9.77494V9.7791V9.78325V9.7874V9.79154V9.79569V9.79984V9.80398V9.80813V9.81227V9.81641V9.82056V9.8247V9.82884V9.83297V9.83711V9.84125V9.84538V9.84951V9.85365V9.85778V9.86191V9.86604V9.87017V9.8743V9.87842V9.88255V9.88667V9.8908V9.89492V9.89904V9.90316V9.90728V9.9114V9.91551V9.91963V9.92375V9.92786V9.93197V9.93608V9.9402V9.9443V9.94841V9.95252V9.95663V9.96073V9.96484V9.96894V9.97304V9.97714V9.98124V9.98534V9.98944V9.99354V9.99763V10.0017V10.0058V10.0099V10.014V10.0181V10.0222V10.0263V10.0304V10.0345V10.0385V10.0426V10.0467V10.0508V10.0549V10.0589V10.063V10.0671V10.0712V10.0753V10.0793V10.0834V10.0875V10.0916V10.0956V10.0997V10.1038V10.1078V10.1119V10.116V10.12V10.1241V10.1281V10.1322V10.1363V10.1403V10.1444V10.1484V10.1525V10.1566V10.1606V10.1647V10.1687V10.1728V10.1768V10.1809V10.1849V10.189V10.193V10.197V10.2011V10.2051V10.2092V10.2132V10.2173V10.2213V10.2253V10.2294V10.2334V10.2374V10.2415V10.2455V10.2495V10.2536V10.2576V10.2616V10.2656V10.2697V10.2737V10.2777V10.2817V10.2858V10.2898V10.2938V10.2978V10.3018V10.3058V10.3099V10.3139V10.3179V10.3219V10.3259V10.3299V10.3339V10.3379V10.3419V10.346V10.35V10.354V10.358V10.362V10.366V10.37V10.374V10.378V10.382V10.3859V10.3899V10.3939V10.3979V10.4019V10.4059V10.4099V10.4139V10.4179V10.4219V10.4258V10.4298V10.4338V10.4378V10.4418V10.4457V10.4497V10.4537V10.4577V10.4616V10.4656V10.4696V10.4736V10.4775V10.4815V10.4855V10.4894V10.4934V10.4974V10.5013V10.5053V10.5093V10.5132V10.5172V10.5211V10.5251V10.5291V10.533V10.537V10.5409V10.5449V10.5488V10.5528V10.5567V10.5607V10.5646V10.5686V10.5725V10.5765V10.5804V10.5844V10.5883V10.5922V10.5962V10.6001V10.604V10.608V10.6119V10.6159V10.6198V10.6237V10.6276V10.6316V10.6355V10.6394V10.6434V10.6473V10.6512V10.6551V10.6591V10.663V10.6669V10.6708V10.6747V10.6786V10.6826V10.6865V10.6904V10.6943V10.6982V10.7021V10.706V10.7099V10.7139V10.7178V10.7217V10.7256V10.7295V10.7334V10.7373V10.7412V10.7451V10.749V10.7529V10.7568V10.7607V10.7646V10.7684V10.7723V10.7762V10.7801V10.784V10.7879V10.7918V10.7957V10.7996V10.8034V10.8073V10.8112V10.8151V10.819V10.8228V10.8267V10.8306V10.8345V10.8383V10.8422V10.8461V10.85V10.8538V10.8577V10.8616V10.8654V10.8693V10.8732V10.877V10.8809V10.8847V10.8886V10.8925V10.8963V10.9002V10.904V10.9079V10.9117V10.9156V10.9194V10.9233V10.9271V10.931V10.9348V10.9387V10.9425V10.9464V10.9502V10.9541V10.9579V10.9617V10.9656V10.9694V10.9733V10.9771V10.9809V10.9848V10.9886V10.9924V10.9963V11.0001V11.0039V11.0077V11.0116V11.0154V11.0192V11.023V11.0269V11.0307V11.0345V11.0383V11.0421V11.046V11.0498V11.0536V11.0574V11.0612V11.065V11.0688V11.0727V11.0765V11.0803V11.0841V11.0879V11.0917V11.0955V11.0993V11.1031V11.1069V11.1107V11.1145V11.1183V11.1221V11.1259V11.1297V11.1335V11.1373V11.141V11.1448V11.1486V11.1524V11.1562V11.16V11.1638V11.1676V11.1713V11.1751V11.1789V11.1827V11.1865V11.1902V11.194V11.1978V11.2016V11.2053V11.2091V11.2129V11.2166V11.2204V11.2242V11.2279V11.2317V11.2355V11.2392V11.243V11.2438C0.496872 14.1839 0.493909 16.1138 0.60584 17.4287C0.718663 18.7541 0.941869 19.3198 1.27191 19.6519C1.39059 19.7678 1.53152 19.8584 1.68622 19.9183C1.84175 19.9785 2.00793 20.0064 2.17461 20.0003L2.18375 20H2.1929C2.37051 20 2.56114 19.9619 2.76761 19.886C2.47719 19.7753 2.19917 19.6309 2.00913 19.5273C1.96414 19.5028 1.92335 19.4802 1.88822 19.4606C1.87884 19.4577 1.86951 19.4546 1.86023 19.4513C1.73228 19.4057 1.65757 19.3368 1.62133 19.3006L1.61867 19.2979C1.6106 19.2897 1.5868 19.2654 1.56245 19.231C1.5511 19.215 1.52553 19.1774 1.50446 19.1241C1.48896 19.0848 1.4372 18.9432 1.49826 18.7716C1.57452 18.5573 1.75509 18.4746 1.85988 18.451C1.95042 18.4305 2.02356 18.4408 2.0478 18.4445C2.10328 18.4531 2.14564 18.4695 2.15648 18.4737L2.15712 18.4739C2.17369 18.4804 2.19059 18.4879 2.20614 18.4954C2.23669 18.4873 2.30439 18.4651 2.41737 18.4056C2.56783 18.3263 2.74888 18.2081 2.95175 18.06C3.35617 17.7648 3.79867 17.3874 4.18891 17.0546L4.19208 17.0519C4.43161 16.8472 4.70373 16.4761 5.01008 15.9785C5.21182 15.6509 5.41072 15.2988 5.61515 14.9369C5.7182 14.7545 5.82266 14.5696 5.92958 14.3841C5.97795 14.3001 6.02678 14.2162 6.07604 14.1327C6.03302 14.0616 6.00223 13.9723 6.00122 13.8618C5.99981 13.7078 6.0634 13.5926 6.11344 13.5261C6.16295 13.4603 6.21845 13.4155 6.25738 13.3878C6.3352 13.3325 6.42138 13.2935 6.49066 13.2662C6.54676 13.2442 6.60807 13.2235 6.6726 13.2044C6.7501 13.0975 6.82828 12.996 6.90705 12.9015C7.22147 12.5246 7.66129 12.1155 8.2139 12.1155C8.28113 12.1155 8.41743 12.0908 8.64154 12.0139C8.85544 11.9405 9.11061 11.8334 9.40126 11.7014C9.69092 11.5698 10.0052 11.4183 10.3379 11.2578L10.3456 11.2541C10.674 11.0957 11.0191 10.9293 11.3649 10.7706C12.0556 10.4538 12.7806 10.1529 13.4238 10.002C14.0277 9.86033 14.7491 9.80395 15.2544 10.2351L15.2558 10.2363C15.4087 10.3677 15.4823 10.5424 15.5221 10.674C15.5645 10.8145 15.5872 10.9707 15.5992 11.1272C15.6234 11.441 15.6096 11.8277 15.5751 12.2455C15.506 13.0849 15.3461 14.1305 15.1812 15.1365C15.1341 15.424 15.0866 15.7078 15.0405 15.9835C14.9235 16.6831 14.8152 17.3303 14.7436 17.851C14.7086 18.1054 14.6841 18.3182 14.6713 18.4851C14.7077 18.5022 14.745 18.5251 14.7814 18.5557C15.017 18.7539 14.956 19.0226 14.9398 19.0785C14.9182 19.1528 14.8841 19.2039 14.8751 19.2174L14.875 19.2175C14.861 19.2385 14.8482 19.2543 14.8412 19.2627C14.8269 19.2798 14.8139 19.293 14.8078 19.2992L14.8065 19.3006C14.7745 19.3325 14.7108 19.392 14.6048 19.437ZM13.6643 18.8339C13.5909 18.8726 13.5157 18.9091 13.4419 18.9397C13.3791 18.9658 13.3239 18.9849 13.2772 18.9976L13.6643 18.8339ZM3.32688 19.0192C3.38446 18.98 3.44215 18.9394 3.49963 18.898C3.4988 18.9425 3.49997 18.9875 3.50298 19.0329L3.32688 19.0192ZM3.32688 19.0192C3.37138 19.0316 3.41275 19.0411 3.45058 19.0477C3.47042 19.0511 3.48825 19.0536 3.50412 19.0552C3.50387 19.0483 3.50351 19.0409 3.50298 19.033L3.32688 19.0192ZM6.65877 16.9925C6.55555 17.0654 6.45121 17.1425 6.34664 17.2222C6.44035 16.9307 6.49201 16.5894 6.4976 16.1888C6.51306 16.1767 6.53612 16.1605 6.56957 16.1403C6.70937 16.0556 6.90453 15.9765 7.15733 15.874L7.18606 15.8623C7.42653 15.7648 7.72543 15.6426 7.96248 15.485C8.19047 15.3334 8.49811 15.0576 8.49811 14.6155C8.49811 14.5504 8.49782 14.4878 8.49726 14.4276C8.75625 14.3829 8.96799 14.3183 9.1401 14.2354C9.23924 14.1876 9.32653 14.1329 9.40203 14.0724C9.49823 14.1364 9.59992 14.1856 9.70688 14.2198C9.91833 14.2873 10.1183 14.2856 10.2885 14.2598C10.4532 14.2349 10.6036 14.185 10.7136 14.1471C10.7334 14.1403 10.7516 14.1339 10.7685 14.1281C10.8208 14.11 10.8605 14.0962 10.8941 14.0857C10.9473 14.2535 11 14.6109 11 15.316C11 15.372 11.0054 15.4933 11.0767 15.6169C11.1704 15.7794 11.3396 15.8796 11.5264 15.8841C11.6684 15.8876 11.7764 15.8346 11.8236 15.809C11.8805 15.7781 11.9289 15.7416 11.9657 15.7112C12.103 15.5979 12.2654 15.4108 12.4246 15.214C12.7568 14.8034 13.1945 14.1986 13.6206 13.6073C13.6484 13.5687 13.6762 13.5302 13.7039 13.4917C13.8898 13.2337 14.0724 12.9802 14.244 12.7453C14.0558 13.6039 13.7465 14.527 13.4189 15.4204C13.3059 15.7285 13.1887 16.0386 13.0754 16.3384C12.9321 16.7174 12.7951 17.0799 12.6808 17.4009C12.4784 17.9693 12.3069 18.5126 12.2803 18.914L12.2803 18.9148C12.2777 18.9547 12.2763 18.9949 12.2763 19.035C11.9523 18.7811 11.6169 18.4944 11.2642 18.1923L11.2635 18.1917L11.2469 18.1775C10.7969 17.7934 10.2719 17.3451 9.77301 16.9925C9.51994 16.8136 9.26108 16.6502 9.01126 16.5299C8.76925 16.4134 8.49287 16.316 8.21588 16.316C7.93889 16.316 7.66251 16.4134 7.42051 16.5299C7.17069 16.6502 6.91183 16.8136 6.65877 16.9925ZM6.46968 16.2143C6.46948 16.2143 6.47057 16.2127 6.47351 16.2097C6.47133 16.2128 6.46987 16.2143 6.46968 16.2143ZM8.68976 13.3421C8.61252 13.2484 8.51987 13.1901 8.4469 13.1548C8.42158 13.1425 8.39599 13.1317 8.37045 13.1222C8.36855 13.1171 8.36661 13.112 8.36462 13.107C8.48851 13.0936 8.61675 13.0656 8.74401 13.0297C8.74371 13.0303 8.74341 13.0309 8.74312 13.0315C8.72793 13.1074 8.72715 13.2201 8.73213 13.2552C8.73563 13.2728 8.74242 13.2999 8.74622 13.3133C8.73562 13.3195 8.72246 13.3266 8.70621 13.3344C8.70095 13.337 8.69547 13.3395 8.68976 13.3421ZM8.78609 13.2842C8.78622 13.2842 8.78547 13.2853 8.78346 13.2872C8.78495 13.2852 8.78595 13.2842 8.78609 13.2842ZM9.49604 12.7527C9.60021 12.7082 9.70678 12.6609 9.81491 12.6118C10.1169 12.4746 10.442 12.3179 10.7723 12.1585L10.7762 12.1567C11.1072 11.997 11.4449 11.8341 11.7819 11.6796C12.4647 11.3663 13.1129 11.1021 13.6522 10.9756C14.0239 10.8884 14.2683 10.8847 14.4233 10.917C14.3001 11.0344 14.152 11.212 14.0009 11.4042C13.694 11.7945 13.2946 12.349 12.8977 12.8999C12.8682 12.9409 12.8387 12.9818 12.8093 13.0227C12.5016 13.4497 12.1998 13.8668 11.9392 14.2104C11.9033 13.9596 11.8496 13.7554 11.7739 13.594C11.6812 13.3962 11.5341 13.2162 11.307 13.1235C11.0931 13.0361 10.8878 13.0601 10.7505 13.0899C10.6367 13.1146 10.5163 13.1567 10.4283 13.1875C10.4139 13.1926 10.4003 13.1973 10.3878 13.2016C10.2821 13.2381 10.2062 13.2609 10.1389 13.2711C10.077 13.2805 10.039 13.2761 10.0111 13.2672C9.98533 13.259 9.93713 13.2372 9.86915 13.1628C9.7654 13.0491 9.70543 12.9758 9.67386 12.9352C9.65823 12.915 9.64946 12.9028 9.64571 12.8974L9.64124 12.8909L9.63915 12.8878L9.63378 12.8801C9.63346 12.8796 9.62399 12.866 9.61108 12.8502C9.60993 12.8488 9.58328 12.815 9.54216 12.7812C9.53291 12.7742 9.5166 12.7641 9.49604 12.7527ZM15.4299 11.2445C15.4299 11.2444 15.4299 11.2442 15.4299 11.244L15.1058 11.2447L14.9299 11.245L15.4299 11.2445ZM14.9963 10.7015C14.95 10.6931 14.9048 10.6911 14.8632 10.6936L14.9299 10.6155L14.9963 10.7015ZM7.02776 14.4892C7.16434 14.4964 7.32069 14.5 7.49778 14.5C7.49793 14.5267 7.49804 14.5539 7.49808 14.5817C7.48512 14.5954 7.45879 14.619 7.40874 14.6523C7.27079 14.7441 7.06968 14.8304 6.81015 14.9357C6.79151 14.9432 6.77248 14.9509 6.75311 14.9587C6.75293 14.9588 6.75275 14.9589 6.75257 14.959C6.76708 14.9336 6.78155 14.9084 6.79597 14.8834C6.87439 14.7474 6.95162 14.6156 7.02776 14.4892ZM7.50921 14.5675C7.50941 14.5675 7.50868 14.569 7.50646 14.5719C7.50791 14.569 7.50902 14.5675 7.50921 14.5675ZM14.4299 11.246C14.4299 11.2478 14.4299 11.2497 14.4299 11.2515C14.4299 11.2491 14.4299 11.2472 14.4299 11.246ZM10.9906 14.0626C10.9906 14.0626 10.9901 14.0626 10.9891 14.0626L10.9906 14.0626Z" stroke="white"/>
</svg>
