<svg width="21" height="21" viewBox="0 0 21 21" fill="none" xmlns="http://www.w3.org/2000/svg">
<path d="M15.7498 12.25C15.2329 12.2534 14.7231 12.3713 14.2571 12.5952C13.7911 12.8191 13.3805 13.1435 13.0548 13.545L8.59233 11.4887C8.80214 10.8463 8.80214 10.1537 8.59233 9.51123L13.0548 7.45498C13.5812 8.0902 14.3151 8.51905 15.127 8.66584C15.9388 8.81263 16.7764 8.66793 17.4919 8.25727C18.2074 7.84661 18.7549 7.1964 19.0377 6.42138C19.3205 5.64636 19.3204 4.79636 19.0375 4.0214C18.7545 3.24643 18.207 2.59632 17.4914 2.18579C16.7758 1.77526 15.9381 1.63071 15.1263 1.77765C14.3145 1.92459 13.5807 2.35357 13.0544 2.98889C12.5281 3.6242 12.2432 4.42501 12.2498 5.24998C12.2525 5.45843 12.273 5.66628 12.3111 5.87123L7.69108 7.99748C7.19852 7.51586 6.57479 7.19031 5.89803 7.0616C5.22127 6.9329 4.52158 7.00677 3.88662 7.27397C3.25166 7.54116 2.70967 7.9898 2.32855 8.56366C1.94743 9.13752 1.74414 9.81109 1.74414 10.5C1.74414 11.1889 1.94743 11.8624 2.32855 12.4363C2.70967 13.0102 3.25166 13.4588 3.88662 13.726C4.52158 13.9932 5.22127 14.0671 5.89803 13.9384C6.57479 13.8097 7.19852 13.4841 7.69108 13.0025L12.3111 15.1287C12.273 15.3337 12.2525 15.5415 12.2498 15.75C12.2498 16.4422 12.4551 17.1189 12.8397 17.6945C13.2243 18.27 13.7709 18.7187 14.4104 18.9836C15.05 19.2485 15.7537 19.3178 16.4326 19.1827C17.1116 19.0477 17.7352 18.7143 18.2247 18.2249C18.7142 17.7354 19.0475 17.1117 19.1826 16.4328C19.3176 15.7539 19.2483 15.0501 18.9834 14.4106C18.7185 13.771 18.2699 13.2244 17.6943 12.8398C17.1187 12.4553 16.4421 12.25 15.7498 12.25ZM15.7498 3.49998C16.0959 3.49998 16.4343 3.60261 16.7221 3.79491C17.0099 3.9872 17.2342 4.26051 17.3666 4.58028C17.4991 4.90005 17.5337 5.25192 17.4662 5.59139C17.3987 5.93085 17.232 6.24267 16.9873 6.48742C16.7425 6.73216 16.4307 6.89883 16.0912 6.96635C15.7518 7.03388 15.3999 6.99922 15.0801 6.86677C14.7604 6.73431 14.487 6.51001 14.2948 6.22223C14.1025 5.93444 13.9998 5.5961 13.9998 5.24998C13.9998 4.78585 14.1842 4.34073 14.5124 4.01254C14.8406 3.68435 15.2857 3.49998 15.7498 3.49998ZM5.24983 12.25C4.90371 12.25 4.56536 12.1473 4.27758 11.9551C3.98979 11.7628 3.76549 11.4894 3.63304 11.1697C3.50058 10.8499 3.46593 10.498 3.53345 10.1586C3.60098 9.8191 3.76765 9.50728 4.01239 9.26254C4.25713 9.0178 4.56895 8.85113 4.90842 8.7836C5.24788 8.71608 5.59975 8.75074 5.91952 8.88319C6.23929 9.01564 6.51261 9.23994 6.7049 9.52773C6.89719 9.81552 6.99983 10.1539 6.99983 10.5C6.99983 10.9641 6.81545 11.4092 6.48726 11.7374C6.15907 12.0656 5.71396 12.25 5.24983 12.25ZM15.7498 17.5C15.4037 17.5 15.0654 17.3973 14.7776 17.2051C14.4898 17.0128 14.2655 16.7394 14.133 16.4197C14.0006 16.0999 13.9659 15.748 14.0335 15.4086C14.101 15.0691 14.2676 14.7573 14.5124 14.5125C14.7571 14.2678 15.069 14.1011 15.4084 14.0336C15.7479 13.9661 16.0998 14.0007 16.4195 14.1332C16.7393 14.2656 17.0126 14.4899 17.2049 14.7777C17.3972 15.0655 17.4998 15.4039 17.4998 15.75C17.4998 16.2141 17.3155 16.6592 16.9873 16.9874C16.6591 17.3156 16.214 17.5 15.7498 17.5Z" fill="white"/>
</svg>
